<?xml version="1.0" standalone="no"?>
<!DOCTYPE svg PUBLIC "-//W3C//DTD SVG 20010904//EN"
 "http://www.w3.org/TR/2001/REC-SVG-20010904/DTD/svg10.dtd">
<svg version="1.0" xmlns="http://www.w3.org/2000/svg"
 width="1824.000000pt" height="1736.000000pt" viewBox="0 0 1824.000000 1736.000000"
 preserveAspectRatio="xMidYMid meet">
<metadata>
Created by potrace 1.12, written by Peter Selinger 2001-2015
</metadata>
<g transform="translate(0.000000,1736.000000) scale(0.100000,-0.100000)"
fill="#000000" stroke="none">
<path d="M1320 8750 l0 -8560 7160 0 7160 0 0 8535 c0 8528 0 8535 -20 8535
-15 0 -20 7 -20 25 l0 25 -7140 0 -7140 0 0 -8560z m14200 7990 l0 -520 -7060
0 -7060 0 0 520 0 520 7060 0 7060 0 0 -520z m-7080 -8540 l0 -7940 -3520 0
-3520 0 0 7940 0 7940 3520 0 3520 0 0 -7940z m7120 0 l0 -7940 -3520 0 -3520
0 0 7940 0 7940 3520 0 3520 0 0 -7940z"/>
<path d="M1480 16740 l0 -440 3470 0 3470 0 2 440 3 440 -3472 0 -3473 0 0
-440z m3703 229 c57 -16 104 -63 122 -122 56 -189 -39 -347 -210 -347 -102 0
-175 49 -200 133 -31 104 -14 213 44 278 56 62 149 85 244 58z m-1153 -15 c44
-18 70 -55 70 -99 0 -30 -24 -81 -42 -89 -10 -5 -10 -7 0 -12 7 -3 25 -16 40
-29 23 -20 27 -31 27 -80 0 -51 -3 -59 -32 -85 -44 -39 -96 -51 -205 -48 l-93
3 -3 215 c-1 118 0 220 2 227 8 20 185 17 236 -3z m438 -16 l-3 -33 -87 -3
-88 -3 0 -59 0 -60 75 0 75 0 0 -35 0 -35 -75 0 -75 0 0 -65 0 -64 88 -3 87
-3 0 -30 0 -30 -130 0 -130 0 -3 215 c-1 118 0 220 2 227 4 10 39 13 136 13
l131 0 -3 -32z m347 -8 l0 -35 -82 -3 -83 -3 0 -54 0 -54 78 -3 77 -3 0 -35 0
-35 -77 -3 -77 -3 -3 -92 -3 -92 -40 0 -40 0 -3 215 c-1 118 0 220 3 228 3 10
34 12 127 10 l123 -3 0 -35z m806 30 c50 -14 80 -50 86 -102 5 -52 -11 -85
-55 -114 -25 -17 -28 -23 -16 -28 15 -6 77 -128 89 -179 l7 -28 -48 3 -48 3
-31 72 c-36 86 -59 113 -96 113 l-28 0 -3 -92 -3 -93 -40 0 -40 0 -3 215 c-1
118 0 220 2 227 7 16 173 18 227 3z m447 -22 l-3 -33 -87 -3 -88 -3 0 -59 0
-60 75 0 75 0 0 -35 0 -35 -75 0 -75 0 0 -65 0 -64 88 -3 87 -3 0 -30 0 -30
-130 0 -130 0 -3 215 c-1 118 0 220 2 227 4 10 39 13 136 13 l131 0 -3 -32z"/>
<path d="M5035 16878 c-51 -40 -69 -131 -45 -219 14 -50 41 -71 97 -76 39 -4
53 -1 77 18 52 41 71 131 45 222 -19 71 -116 101 -174 55z"/>
<path d="M3880 16645 l0 -65 55 0 c61 0 95 22 95 63 0 44 -36 67 -104 67 l-46
0 0 -65z"/>
<path d="M5480 16834 l0 -67 52 5 c55 6 78 24 78 65 0 38 -34 63 -85 63 l-45
0 0 -66z"/>
<path d="M8500 16740 l0 -440 3470 0 3470 0 0 440 0 440 -3470 0 -3470 0 0
-440z m2547 228 c12 -15 153 -419 153 -437 0 -8 -15 -11 -47 -9 -48 3 -48 3
-63 50 l-15 48 -92 0 -92 0 -14 -47 c-13 -45 -16 -48 -52 -51 -21 -2 -41 0
-46 5 -7 7 14 69 127 381 l26 72 53 0 c30 0 57 -5 62 -12z m468 -28 l0 -35
-82 -3 -83 -3 0 -54 0 -54 78 -3 77 -3 0 -35 0 -35 -77 -3 -77 -3 -3 -92 -3
-92 -40 0 -40 0 -3 215 c-1 118 0 220 3 228 3 10 34 12 127 10 l123 -3 0 -35z
m380 0 l0 -35 -62 -3 -63 -3 -2 -187 -3 -187 -40 0 -40 0 -3 187 -2 187 -63 3
c-56 3 -62 5 -65 26 -8 52 -5 53 175 50 l168 -3 0 -35z m333 8 l-3 -33 -87 -3
-88 -3 0 -59 0 -60 75 0 75 0 0 -35 0 -35 -75 0 -75 0 0 -65 0 -64 88 -3 87
-3 0 -30 0 -30 -130 0 -130 0 -3 215 c-1 118 0 220 2 227 4 10 39 13 136 13
l131 0 -3 -32z m323 22 c50 -14 80 -50 86 -102 5 -52 -11 -85 -55 -114 -25
-17 -28 -23 -16 -28 15 -6 77 -128 89 -179 l7 -28 -48 3 -48 3 -31 72 c-36 86
-59 113 -96 113 l-28 0 -3 -92 -3 -93 -40 0 -40 0 -3 215 c-1 118 0 220 2 227
7 16 173 18 227 3z"/>
<path d="M12410 16844 l0 -67 52 5 c55 6 78 24 78 65 0 38 -34 63 -85 63 l-45
0 0 -66z"/>
<path d="M4537 15634 c-9 -9 20 -63 50 -95 20 -22 23 -31 14 -46 -15 -30 -37
-44 -73 -49 -49 -7 -183 -60 -225 -89 -39 -26 -59 -22 -46 11 8 19 16 23 66
32 15 2 27 8 27 13 0 5 6 9 14 9 8 0 18 5 22 11 15 25 -23 25 -108 -2 -49 -16
-93 -28 -96 -27 -4 1 -20 -4 -37 -11 -23 -10 -45 -10 -95 -2 -93 16 -215 28
-288 30 -35 1 -74 6 -86 11 -34 13 -227 15 -341 4 -55 -5 -153 -8 -218 -6 -96
2 -134 -2 -200 -19 -94 -25 -202 -73 -282 -124 -30 -19 -60 -35 -65 -35 -6 0
-10 -6 -10 -13 0 -8 -18 -22 -39 -32 -22 -9 -52 -30 -67 -46 -15 -16 -33 -29
-38 -29 -6 0 -22 -16 -36 -35 -14 -19 -32 -37 -40 -40 -28 -11 -106 -120 -144
-200 -21 -44 -46 -98 -57 -120 -11 -23 -22 -59 -26 -80 -3 -22 -10 -45 -14
-51 -5 -6 -8 -24 -7 -40 1 -16 -3 -58 -8 -94 -5 -36 -9 -96 -9 -133 1 -59 4
-71 23 -85 l21 -17 -22 -21 c-12 -12 -28 -42 -36 -68 -11 -39 -11 -55 0 -94
22 -80 83 -186 173 -299 68 -87 113 -123 149 -123 30 0 36 17 10 27 -27 9 -73
43 -73 53 0 17 66 -24 99 -62 22 -24 43 -38 59 -38 23 0 22 -2 -17 -37 -36
-32 -45 -49 -62 -113 -21 -78 -20 -143 2 -197 61 -150 91 -205 133 -251 49
-53 81 -71 151 -82 38 -6 68 -5 107 6 29 7 54 14 54 14 9 1 10 -48 2 -76 -30
-109 -37 -294 -15 -379 3 -11 8 -33 12 -48 4 -16 18 -51 31 -78 13 -27 24 -52
24 -55 0 -3 22 -27 50 -52 l50 -45 -5 -75 c-3 -40 -10 -82 -15 -92 -6 -10 -10
-28 -10 -40 0 -51 -94 -180 -131 -180 -5 0 -35 -16 -65 -35 -30 -19 -56 -35
-59 -35 -2 0 -46 -20 -97 -44 -55 -26 -115 -47 -147 -51 -84 -10 -177 -63
-236 -135 -150 -183 -187 -317 -154 -556 9 -65 30 -173 46 -239 17 -66 36
-147 43 -180 7 -33 16 -76 21 -95 28 -110 41 -413 55 -1310 3 -206 7 -380 9
-387 2 -7 5 -286 6 -620 1 -334 6 -664 11 -732 8 -116 11 -129 43 -187 42 -76
113 -148 160 -165 22 -8 35 -20 35 -30 0 -10 4 -20 9 -23 4 -3 14 -34 21 -68
19 -95 40 -166 70 -238 40 -96 49 -128 61 -221 5 -46 21 -147 35 -224 72 -406
84 -572 77 -1070 -8 -499 -8 -716 -1 -1215 4 -329 8 -405 27 -520 12 -74 23
-140 26 -147 6 -19 43 -251 54 -348 16 -131 15 -298 -2 -390 -8 -44 -20 -132
-27 -195 -15 -146 -21 -186 -54 -342 l-28 -128 22 -27 c15 -19 19 -35 15 -54
-4 -15 -1 -30 5 -34 10 -6 9 -61 -6 -249 -9 -114 -32 -212 -64 -276 -18 -36
-30 -75 -30 -99 0 -35 8 -47 86 -130 106 -112 263 -208 369 -226 22 -4 54 -11
70 -15 17 -5 68 -17 115 -27 157 -32 463 -18 654 32 31 8 72 15 90 15 18 0 66
8 107 19 108 27 164 33 322 33 117 0 163 -5 262 -27 248 -55 313 -64 440 -59
66 2 138 9 160 15 75 21 143 51 160 70 13 13 22 16 34 9 10 -5 33 -5 56 0 21
5 42 7 47 4 4 -3 16 -1 26 5 10 5 42 12 72 16 29 3 57 8 60 10 8 5 132 14 270
20 126 5 160 16 219 75 59 59 77 117 68 222 -12 139 -79 224 -213 266 -38 12
-82 27 -99 32 -37 12 -205 48 -305 65 -93 17 -169 43 -320 112 -104 47 -195
96 -237 127 -74 55 -198 158 -201 167 -2 5 -10 9 -18 9 -8 0 -28 29 -45 65
-27 57 -67 101 -70 78 -1 -4 -7 42 -14 102 -7 61 -16 133 -20 160 -16 130 -25
774 -13 1030 1 22 1 60 0 85 -4 91 9 460 17 482 15 43 19 234 11 578 -1 74 3
166 9 203 26 150 31 264 20 412 -25 323 -28 994 -5 1065 8 28 19 75 22 105 3
17 9 55 14 85 5 30 14 95 19 143 7 72 13 91 29 103 11 8 22 24 24 36 2 12 12
25 24 28 22 5 137 80 142 93 2 4 10 7 18 7 8 0 14 4 14 8 0 5 30 28 68 51 37
24 77 57 90 74 63 88 214 328 232 368 6 13 23 44 38 69 16 25 39 72 52 105 12
33 29 74 35 90 12 28 28 94 61 254 3 13 11 50 18 82 8 32 13 59 11 61 -2 2 -6
53 -10 113 -6 108 -17 164 -50 275 -10 30 -23 80 -30 110 -16 67 -61 201 -85
255 -33 71 -81 196 -106 273 -14 41 -36 100 -50 131 -14 31 -32 72 -41 91 -8
19 -20 44 -26 55 -6 11 -19 38 -30 60 -30 61 -128 226 -154 258 -13 16 -23 32
-23 37 0 9 -61 112 -71 120 -4 3 -15 19 -25 37 -24 39 -119 178 -151 218 -38
48 -59 80 -72 110 -5 11 -17 29 -28 41 -10 11 -29 40 -42 65 -88 163 -126 240
-141 285 -10 28 -23 59 -28 70 -11 19 -38 101 -48 145 -13 54 -23 106 -29 149
-25 176 -110 378 -200 478 -81 91 -154 155 -179 158 -34 3 -131 51 -167 81
-16 14 -38 42 -48 62 -10 20 -26 50 -35 68 -24 45 -30 117 -18 197 11 71 19
82 62 92 71 16 343 110 395 136 166 84 219 177 320 560 25 94 54 182 64 196
11 15 45 51 76 81 79 76 145 155 145 175 0 9 4 16 9 16 5 0 12 10 16 23 4 12
8 24 9 27 24 55 26 66 17 88 -8 17 -8 21 0 17 7 -5 8 8 4 41 -5 35 -22 72 -60
129 -29 44 -56 91 -60 105 -4 14 -11 30 -16 36 -5 6 -15 48 -21 92 -11 72 -9
103 15 289 25 199 26 213 13 328 -15 136 -21 154 -71 224 -19 28 -35 56 -35
61 0 13 42 93 53 101 4 3 9 16 10 27 1 12 4 22 8 22 10 0 23 59 24 115 1 28 9
65 19 84 24 45 23 92 -3 141 -12 22 -21 57 -21 77 0 21 -8 45 -17 56 -17 18
-17 19 0 32 23 17 22 27 -8 55 -13 12 -29 38 -35 56 -11 32 -76 94 -122 114
-12 6 -34 17 -48 25 -14 8 -35 15 -47 15 -13 0 -24 8 -28 20 -6 19 -44 28 -58
14z m-314 -664 c32 0 56 -4 53 -9 -13 -20 8 -42 53 -55 89 -26 236 -108 328
-183 81 -65 97 -84 128 -147 61 -122 81 -303 51 -461 -24 -128 -35 -273 -25
-340 13 -85 52 -177 111 -261 l51 -73 -5 -70 c-9 -118 -55 -194 -194 -318 -17
-15 -44 -45 -60 -66 -26 -36 -28 -46 -30 -142 -2 -119 -21 -188 -92 -330 -31
-60 -66 -111 -106 -153 -61 -64 -146 -129 -146 -112 0 4 -11 22 -25 38 -27 33
-70 41 -235 46 -47 1 -94 7 -105 13 -11 6 -24 11 -30 11 -15 0 -44 91 -45 138
0 28 -6 47 -21 60 -11 10 -25 26 -29 35 -10 18 -40 207 -40 249 0 27 -42 76
-57 67 -4 -3 -8 -34 -7 -69 1 -34 -1 -67 -3 -71 -3 -5 -16 2 -29 14 -21 20
-24 20 -30 5 -5 -12 -10 -14 -19 -6 -7 6 -19 9 -26 8 -10 -2 -15 11 -17 42 -2
25 -7 49 -13 54 -5 6 -9 17 -9 26 0 19 -53 73 -63 64 -3 -3 -3 -25 -1 -48 3
-22 1 -52 -5 -66 -6 -17 -10 -19 -10 -8 -1 28 -61 90 -76 78 -17 -14 -25 -2
-25 40 0 27 -7 43 -29 64 -36 34 -45 23 -36 -43 9 -68 -8 -71 -44 -9 -33 58
-101 131 -101 108 0 -43 -40 57 -60 150 -13 61 -74 164 -93 157 -7 -2 -22 4
-35 14 -13 10 -30 15 -37 13 -9 -4 -16 4 -20 23 -4 15 -11 41 -16 57 -5 16 -9
45 -9 66 0 20 -7 45 -15 56 -8 10 -15 31 -15 46 0 15 -8 46 -17 69 -15 38 -15
52 -3 143 8 56 15 139 16 186 0 49 8 105 17 132 9 26 19 59 21 74 3 16 11 31
18 35 7 4 20 14 29 21 22 17 179 226 179 237 0 5 6 14 14 20 8 7 18 26 21 42
4 16 10 29 15 29 9 0 24 66 21 90 -1 11 14 21 46 32 26 9 93 33 148 53 246 91
345 124 396 130 29 4 56 8 59 10 3 2 34 6 70 10 36 4 66 8 68 9 1 2 33 -3 70
-10 37 -7 93 -13 125 -14z m-1320 -221 c12 -7 24 -13 25 -15 2 -1 -6 -16 -18
-32 -15 -20 -21 -38 -17 -54 5 -18 -5 -36 -42 -80 -27 -32 -51 -63 -54 -70 -3
-9 -9 -8 -19 6 -11 13 -23 17 -42 14 -25 -5 -25 -4 -11 12 8 9 15 22 15 28 0
6 14 22 31 34 26 19 28 24 15 34 -24 17 5 49 58 64 56 15 82 40 42 40 -25 0
-33 10 -19 23 9 9 11 9 36 -4z m-256 -531 c-3 -22 1 -78 9 -126 7 -47 12 -87
10 -89 -5 -5 -62 90 -76 127 -7 19 -17 39 -22 45 -18 21 -1 108 26 127 6 4 21
-5 34 -19 20 -22 23 -34 19 -65z m46 -485 c11 -13 27 -23 34 -23 14 0 32 -38
37 -75 3 -24 13 -51 31 -86 10 -17 15 -64 16 -140 0 -63 4 -118 9 -124 7 -10
13 -50 27 -184 4 -45 3 -62 -5 -57 -6 3 -14 0 -19 -7 -16 -29 -66 -45 -113
-38 -86 14 -144 61 -183 151 -11 25 -29 65 -41 90 -31 67 -30 200 2 253 24 37
97 95 130 102 61 12 112 29 112 37 0 18 -39 50 -54 45 -17 -7 -32 26 -19 45 4
7 7 24 5 38 -1 14 1 18 5 10 3 -8 15 -25 26 -37z m605 -1533 c33 -16 69 -30
81 -30 20 0 193 -52 236 -71 11 -5 37 -10 57 -12 38 -2 47 -10 28 -22 -18 -11
-10 -44 13 -51 12 -5 24 -8 27 -7 3 0 24 3 47 7 35 5 41 4 37 -9 -4 -8 -2 -21
4 -28 5 -6 13 -43 17 -81 12 -121 14 -125 82 -239 38 -63 83 -95 193 -137 57
-21 77 -37 142 -107 137 -148 198 -287 252 -578 46 -245 169 -513 365 -796 45
-64 81 -120 81 -125 0 -4 25 -41 56 -81 62 -80 92 -127 194 -303 37 -63 84
-142 104 -175 82 -133 247 -525 309 -735 9 -30 29 -100 46 -155 63 -211 74
-276 73 -435 -1 -244 -126 -565 -344 -887 -78 -114 -144 -171 -328 -283 -59
-36 -115 -72 -125 -80 -21 -18 -79 -21 -155 -9 -30 4 -77 11 -105 13 -27 3
-113 13 -190 21 -77 9 -186 20 -243 25 -56 5 -128 14 -160 19 -49 9 -163 24
-277 36 -56 6 -150 24 -202 38 -28 8 -55 12 -58 9 -3 -4 -9 -2 -13 4 -8 12
-158 60 -214 69 -20 3 -58 16 -85 29 -26 13 -69 31 -95 41 -26 9 -54 25 -63
35 -14 16 -12 19 25 45 90 63 136 135 159 252 15 81 -3 123 -66 153 -23 11
-47 20 -53 20 -5 0 -10 3 -11 8 -5 88 -26 142 -54 142 -8 0 -30 14 -48 30 -19
17 -38 30 -41 30 -15 0 -96 89 -97 106 -4 55 4 99 38 199 35 105 40 124 47
171 1 11 7 27 12 35 5 7 10 23 11 34 6 45 15 105 28 185 8 47 19 114 25 150 5
36 19 99 30 140 12 41 23 86 25 100 12 80 26 164 29 169 2 3 7 29 10 56 4 28
14 75 22 105 19 65 61 260 74 345 6 33 19 98 29 145 11 47 27 126 36 175 9 50
22 113 30 140 8 28 21 86 30 130 9 44 22 100 30 125 7 25 30 117 50 205 20 88
42 172 47 187 5 15 7 32 3 37 -3 6 -2 11 3 11 6 0 12 17 16 38 32 216 31 297
-4 397 -26 75 -31 80 -61 56 -22 -18 -23 -20 -8 -38 34 -38 15 -296 -40 -563
-24 -113 -97 -403 -140 -550 -28 -98 -78 -348 -101 -503 -6 -37 -24 -127 -40
-200 -17 -73 -48 -229 -71 -347 -22 -118 -49 -245 -59 -281 -11 -36 -27 -106
-35 -155 -9 -49 -25 -141 -36 -204 -11 -63 -38 -176 -61 -250 -30 -97 -42
-156 -44 -209 l-2 -74 51 -55 c29 -29 82 -72 119 -94 38 -22 68 -48 69 -57 1
-9 0 -32 0 -51 -2 -48 6 -56 75 -84 42 -17 60 -30 62 -45 5 -30 -25 -139 -49
-178 -33 -54 -130 -119 -251 -169 -101 -42 -121 -47 -188 -46 -59 0 -91 7
-150 30 -138 56 -147 65 -203 192 -28 62 -29 73 -33 255 -3 105 -7 453 -9 775
-1 322 -5 594 -8 605 -2 11 -7 166 -11 345 -19 1004 -23 1076 -81 1330 -67
289 -74 325 -85 425 -8 70 -8 119 -1 162 10 64 72 200 118 261 44 58 198 157
227 146 17 -7 401 187 461 233 66 50 82 87 95 216 14 140 14 140 61 134 30 -4
46 0 71 18 44 31 67 30 136 -5z m64 -5269 c14 -8 24 -19 22 -26 -3 -7 -1 -16
5 -20 7 -3 11 2 11 14 0 18 3 19 30 10 31 -11 34 -22 21 -69 -5 -17 -9 -21
-15 -12 -4 7 -12 9 -18 6 -6 -4 -8 -3 -5 2 6 11 -9 41 -17 34 -10 -11 7 -58
19 -54 16 6 27 -34 15 -55 -8 -13 -9 -11 -10 10 0 20 -5 25 -22 24 -13 -1 -24
-9 -26 -18 -4 -19 -11 -21 -32 -7 -13 8 -13 11 -1 19 8 5 11 16 8 25 -4 9 -2
16 2 16 5 0 12 -6 14 -12 3 -7 6 2 6 20 1 20 -3 31 -9 27 -5 -3 -10 1 -10 9 0
8 4 17 10 21 5 3 7 12 3 21 -7 18 -18 9 -18 -14 0 -9 -6 -16 -14 -14 -10 2
-12 -6 -9 -27 4 -25 2 -28 -9 -20 -10 9 -13 6 -13 -14 0 -14 5 -29 10 -32 6
-4 8 -11 4 -16 -9 -16 -34 39 -34 75 0 24 3 27 10 16 8 -12 10 -11 10 8 0 14
-6 22 -16 22 -13 0 -14 3 -4 14 6 8 18 12 26 9 9 -3 14 1 14 12 0 9 3 15 8 13
4 -2 19 -10 34 -17z m208 -102 c7 -29 1 -69 -10 -69 -5 0 -11 10 -13 23 -4 19
-4 18 -6 -6 -1 -21 5 -30 23 -37 18 -6 26 -19 31 -47 4 -30 11 -39 26 -40 18
-2 20 2 15 23 -6 22 -4 25 14 19 16 -5 19 -3 13 12 -7 19 -32 42 -46 43 -4 0
-5 -11 -1 -25 4 -15 2 -25 -5 -25 -6 0 -11 10 -11 23 0 37 20 98 31 92 5 -4 9
3 9 15 0 12 5 18 10 15 6 -3 10 -20 10 -36 0 -18 -4 -28 -10 -24 -6 3 -10 -4
-10 -18 0 -15 8 -28 24 -35 24 -11 24 -10 19 24 -4 27 -2 34 11 34 11 0 16 -9
16 -26 0 -14 5 -34 11 -46 14 -26 3 -36 -21 -20 -17 11 -20 10 -20 -8 0 -13 7
-20 19 -20 11 0 26 -3 34 -6 11 -4 14 3 10 31 -5 48 13 36 21 -14 4 -27 12
-40 26 -44 13 -3 20 -14 20 -29 0 -28 9 -42 32 -51 10 -3 19 0 22 10 4 10 2
13 -8 10 -19 -8 -38 33 -34 74 l4 34 8 -40 c6 -33 12 -41 32 -43 19 -1 24 3
24 21 0 18 2 19 11 7 9 -12 10 -11 6 6 -2 12 -1 28 4 35 7 12 9 11 10 -1 1 -8
5 3 9 25 l7 40 8 -34 c5 -19 16 -36 26 -38 12 -3 20 -19 25 -46 3 -23 12 -45
18 -49 7 -5 4 -8 -7 -8 -12 0 -20 10 -24 30 -3 17 -14 35 -25 41 -28 15 -37 0
-10 -18 12 -9 22 -26 22 -40 0 -13 7 -26 15 -29 21 -8 19 -36 -2 -32 -10 2
-21 8 -25 13 -4 6 -8 0 -8 -12 0 -16 6 -23 20 -23 13 0 21 -9 25 -27 4 -16 11
-36 16 -47 7 -12 7 -22 1 -28 -7 -7 -14 2 -21 28 -6 22 -11 44 -11 50 0 13
-35 25 -44 16 -12 -12 -5 -31 14 -37 12 -4 22 -19 26 -41 3 -19 10 -34 15 -34
5 0 9 -5 9 -10 0 -16 -34 -7 -42 10 -4 9 -7 3 -7 -17 -1 -26 2 -30 18 -26 15
4 19 -3 25 -36 4 -26 2 -48 -6 -61 -14 -22 -11 -27 17 -32 17 -3 19 2 16 32
-2 29 -1 32 12 22 12 -10 16 -10 20 2 4 10 -1 16 -16 18 -15 2 -23 13 -28 38
-4 19 -4 39 1 43 4 5 11 -6 15 -23 4 -20 15 -34 26 -37 14 -4 19 -14 19 -40 0
-22 -4 -32 -11 -28 -7 5 -8 -5 -3 -30 6 -32 4 -37 -15 -42 -27 -7 -27 -18 0
-20 28 -2 27 -1 35 -52 5 -32 4 -42 -4 -37 -7 4 -12 20 -12 36 0 23 -3 27 -20
23 -11 -3 -20 0 -20 6 0 6 -6 11 -14 11 -9 0 -12 -7 -9 -18 2 -11 13 -18 25
-18 11 1 22 -6 24 -14 13 -73 14 -90 5 -90 -6 0 -12 7 -12 15 -1 8 -3 18 -4
23 -2 4 -6 17 -10 30 -9 27 -55 32 -55 5 0 -15 -2 -16 -10 -3 -5 8 -10 25 -10
38 0 15 -6 22 -20 22 -11 0 -20 -7 -20 -15 0 -8 -4 -15 -10 -15 -5 0 -10 -11
-10 -25 0 -16 -6 -25 -15 -25 -21 0 -19 -16 4 -32 22 -15 37 -73 22 -83 -7 -4
-11 5 -11 24 0 28 -5 33 -26 30 -13 -1 -24 26 -24 59 0 18 4 31 9 28 5 -4 8 1
7 9 -1 9 -5 15 -9 15 -4 0 -14 0 -23 0 -14 0 -14 -3 -4 -15 8 -10 9 -15 2 -15
-6 0 -16 17 -21 38 -14 47 -14 65 -1 57 6 -3 10 -15 10 -25 0 -10 4 -21 9 -24
4 -3 5 12 1 34 -4 21 -4 44 0 50 4 7 10 -3 14 -24 5 -26 12 -36 26 -36 10 0
21 -6 23 -12 3 -7 6 -2 6 12 1 21 3 22 12 10 8 -11 9 -8 4 15 -8 38 -21 53
-59 71 -22 10 -24 13 -8 10 18 -3 22 0 22 20 0 13 4 24 9 24 12 0 21 -25 21
-57 0 -18 4 -24 14 -20 10 4 16 -5 21 -33 4 -26 13 -40 26 -43 29 -8 32 9 4
27 -20 13 -25 25 -25 56 0 22 5 40 10 40 6 0 10 7 10 15 0 8 -9 15 -20 15 -15
0 -20 7 -20 28 -1 15 -12 41 -25 57 l-25 30 0 -32 c0 -22 5 -33 14 -33 11 0
47 -77 46 -99 -1 -18 -30 37 -30 56 0 13 -4 23 -9 23 -21 0 -41 33 -41 66 0
19 4 33 9 29 5 -3 12 4 16 15 3 11 11 20 16 20 5 0 9 9 9 21 0 13 4 18 12 13
8 -5 9 -2 5 9 -3 10 -3 25 0 34 6 15 7 15 14 -3 6 -14 8 -9 8 18 1 27 5 36 14
32 12 -4 15 11 8 46 -1 3 -6 -2 -11 -10 -6 -9 -10 -11 -10 -3 0 22 -28 3 -40
-28 -7 -16 -16 -29 -21 -29 -5 0 -9 -9 -9 -20 0 -12 7 -20 17 -20 13 0 14 -3
6 -11 -21 -21 -43 -2 -43 38 0 28 -3 34 -10 23 -8 -13 -10 -12 -10 3 0 10 -4
16 -9 13 -5 -3 -11 12 -15 34 -5 29 -10 38 -21 34 -8 -4 -17 1 -21 10 -8 22
-23 11 -17 -13 3 -11 16 -22 29 -25 19 -5 24 -13 24 -40 0 -19 6 -36 13 -39 6
-2 9 -8 5 -12 -11 -11 -38 21 -38 45 0 12 -4 18 -10 15 -5 -3 -10 -1 -10 4 0
6 -6 10 -12 9 -7 -2 -14 7 -16 20 -6 39 -18 24 -14 -18 5 -50 -3 -51 -23 -3
-18 43 -15 58 10 58 10 0 21 7 23 15 4 13 3 13 -10 2 -11 -9 -18 -10 -23 -2
-10 17 -25 11 -25 -10 0 -11 -4 -20 -9 -20 -5 0 -11 -10 -15 -22 -5 -20 -8
-21 -17 -8 -8 11 -9 7 -4 -17 3 -17 2 -34 -3 -37 -6 -3 -12 7 -14 22 -3 15 -9
35 -13 45 -5 13 -3 16 8 11 19 -7 34 16 17 26 -20 12 -40 0 -41 -24 0 -20 -1
-20 -9 -1 -5 11 -9 34 -9 50 l0 30 14 -25 c13 -22 14 -23 15 -5 0 41 -11 64
-31 60 -28 -6 -38 58 -13 87 14 15 16 22 6 25 -6 3 -9 9 -6 14 10 16 28 4 34
-22z m669 -96 c1 20 21 23 21 3 0 -8 -4 -18 -10 -21 -16 -10 -12 -35 4 -29 18
7 41 -65 26 -80 -7 -7 -10 -3 -10 11 0 22 -24 53 -41 53 -5 0 -9 -7 -9 -15 0
-8 7 -15 15 -15 8 0 19 -17 26 -40 7 -22 16 -40 21 -40 5 0 6 -4 3 -10 -3 -6
1 -7 9 -4 18 7 22 34 6 34 -5 0 -10 5 -10 11 0 6 9 9 20 6 17 -4 20 0 20 25 0
26 2 29 15 18 13 -11 15 -8 15 21 0 26 3 30 10 19 8 -12 10 -10 11 10 1 14 1
32 0 40 -1 11 3 10 14 -4 19 -25 20 -75 0 -82 -10 -4 -13 -14 -9 -30 4 -15 2
-24 -5 -24 -6 0 -11 5 -11 11 0 5 -4 8 -9 4 -6 -3 -6 -18 0 -37 5 -17 6 -34 4
-37 -3 -2 -5 1 -5 8 0 7 -4 10 -9 6 -5 -3 -12 5 -14 17 -3 17 -5 15 -6 -9 0
-17 5 -33 12 -36 7 -2 8 -8 3 -13 -5 -5 -11 -4 -13 4 -7 19 -23 14 -23 -8 0
-11 -6 -29 -12 -40 -11 -16 -9 -22 6 -33 13 -10 16 -16 7 -21 -6 -4 -14 0 -17
8 -9 24 -31 19 -30 -6 1 -13 -4 -22 -11 -20 -8 1 -13 -8 -13 -22 0 -19 4 -23
20 -19 15 4 21 -2 27 -23 4 -16 6 -35 4 -43 -1 -7 2 -10 8 -6 6 3 11 1 11 -4
0 -6 5 -11 10 -11 6 0 10 11 10 25 0 14 4 25 10 25 9 0 13 -12 25 -72 2 -12
-3 -18 -15 -18 -12 0 -21 -10 -25 -30 -7 -31 1 -54 15 -45 10 6 20 -19 20 -50
0 -26 -16 -42 -23 -23 -2 7 -2 3 0 -10 2 -14 -2 -25 -12 -29 -9 -3 -14 -12
-11 -19 3 -7 -1 -20 -9 -28 -8 -8 -15 -19 -15 -25 0 -6 -6 -10 -12 -8 -7 1
-13 -8 -13 -20 -1 -40 -13 -35 -20 7 -4 23 -4 44 -1 47 3 4 6 -1 6 -10 0 -9 5
-17 10 -17 6 0 10 11 10 25 0 27 28 67 42 59 4 -3 8 4 8 15 0 12 -4 21 -10 21
-5 0 -10 7 -10 16 0 10 6 14 15 10 21 -8 19 17 -5 44 -21 25 -27 75 -9 85 7 5
3 14 -10 26 -27 25 -28 24 -23 -13 3 -22 0 -35 -14 -45 -16 -11 -12 -15 13
-12 11 1 22 -32 21 -66 0 -29 -1 -28 -10 8 -6 20 -16 37 -23 37 -8 0 -19 8
-24 18 -8 14 -10 9 -11 -22 0 -43 -17 -40 -22 4 -2 14 -7 28 -13 33 -6 4 -5
11 5 16 10 7 17 6 23 -2 5 -7 6 -1 3 16 -4 15 -2 27 4 27 5 0 10 -7 10 -16 0
-8 4 -13 9 -10 11 7 2 46 -10 46 -5 0 -9 7 -9 15 0 18 36 20 43 3 3 -7 5 1 5
17 0 17 -2 24 -5 18 -8 -21 -43 5 -43 32 0 13 -11 36 -25 51 -14 15 -25 38
-25 52 0 14 -3 23 -6 19 -12 -12 -37 25 -36 55 1 43 10 46 17 4 5 -22 14 -38
26 -41 13 -4 19 -16 19 -35 0 -19 8 -35 23 -45 21 -15 22 -15 25 15 4 33 18
40 25 13 4 -14 5 -13 6 4 0 12 -3 25 -9 28 -19 12 -11 33 10 28 23 -6 25 5 7
27 -21 25 -37 22 -37 -7 0 -22 -2 -25 -10 -13 -5 8 -10 25 -10 38 0 13 -4 21
-8 18 -5 -3 -15 4 -22 15 -21 28 -30 23 -25 -13 4 -31 4 -31 -7 5 -8 25 -17
37 -30 37 -10 0 -18 6 -18 13 0 6 -3 23 -7 36 -5 20 -3 23 11 18 13 -5 16 -3
12 11 -3 9 -2 23 3 30 6 10 10 6 15 -14 6 -21 3 -31 -10 -41 -20 -15 -13 -38
15 -46 16 -4 21 0 21 15 0 10 -4 16 -10 13 -5 -3 -10 -1 -10 4 0 6 5 12 10 12
6 1 14 2 18 3 18 2 42 36 43 58 0 22 1 22 9 3 7 -17 9 -17 9 -2z m435 -90 c1
-1 13 -4 29 -8 21 -6 27 -4 27 10 0 9 -4 14 -9 10 -12 -7 -41 22 -41 41 0 8 5
12 10 9 6 -3 10 -13 10 -22 0 -9 6 -13 15 -10 8 4 17 2 20 -3 10 -17 23 -11
28 13 3 16 5 13 6 -10 0 -18 -3 -33 -9 -33 -5 0 -10 -9 -10 -21 0 -14 5 -19
14 -16 7 3 19 0 25 -6 8 -8 11 -5 11 12 0 12 -4 19 -10 16 -5 -3 -10 2 -10 11
0 14 3 15 12 6 19 -19 28 -14 28 14 0 22 2 25 15 14 12 -10 15 -10 15 0 0 8 3
11 6 7 4 -3 2 -20 -4 -36 -10 -28 -9 -31 14 -37 20 -5 24 -12 24 -45 0 -45
-15 -52 -25 -12 -7 31 -23 53 -36 53 -17 0 -9 -29 11 -40 14 -8 20 -21 20 -47
0 -35 -1 -36 -15 -17 -13 17 -13 15 -2 -16 7 -19 16 -38 21 -41 12 -9 -12 -22
-29 -15 -9 3 -15 -1 -15 -9 0 -8 5 -15 10 -15 6 0 10 -7 10 -15 0 -20 -10 -19
-26 3 -12 15 -13 14 -14 -15 0 -43 -16 -42 -24 0 -7 39 -46 70 -46 37 0 -11 7
-20 15 -20 13 0 13 -3 3 -13 -18 -20 -38 3 -38 42 0 23 -4 29 -15 25 -10 -4
-15 0 -15 10 0 18 29 19 42 1 4 -5 8 2 8 18 0 15 5 27 10 27 6 0 10 15 10 33
1 32 1 32 14 8 7 -12 11 -34 8 -47 -3 -18 0 -24 9 -22 10 2 13 -6 12 -27 -1
-16 1 -22 4 -12 2 10 11 16 18 13 10 -3 12 5 8 35 -4 25 -2 39 6 39 6 0 11 8
11 17 0 9 -3 13 -7 10 -3 -4 -12 1 -19 11 -12 15 -13 13 -14 -18 -1 -33 -1
-34 -15 -16 -8 11 -15 30 -15 44 0 13 -4 20 -10 17 -5 -3 -10 -1 -10 4 0 6 -5
11 -11 11 -7 0 -10 -12 -7 -29 3 -21 1 -28 -9 -24 -9 4 -13 -4 -13 -26 0 -17
-5 -31 -11 -31 -5 0 -8 3 -5 8 8 13 -23 72 -39 72 -8 0 -15 5 -15 10 0 6 9 10
20 10 11 0 20 7 20 15 0 8 -5 14 -12 13 -13 -3 -30 60 -21 82 4 10 9 4 16 -20
6 -19 11 -36 11 -37z m-34 -20 c0 -17 -4 -35 -10 -38 -5 -3 -10 -15 -10 -27 0
-16 3 -18 14 -9 16 14 30 0 40 -41 8 -33 -3 -66 -15 -46 -6 9 -9 7 -9 -9 0
-13 5 -24 10 -24 6 -1 15 -2 22 -3 14 -1 26 -37 27 -80 1 -24 -2 -27 -19 -23
-13 3 -20 0 -20 -9 0 -7 6 -11 13 -9 17 6 34 -6 40 -30 4 -11 5 1 3 28 -3 44
6 63 17 35 3 -7 6 -3 6 10 1 34 21 26 21 -8 0 -16 3 -29 8 -29 23 4 32 -5 38
-36 3 -19 10 -35 15 -35 5 0 9 -9 9 -20 0 -11 -4 -20 -10 -20 -5 0 -10 7 -10
15 0 8 -4 15 -10 15 -5 0 -10 -9 -10 -20 0 -11 7 -20 15 -20 8 0 15 -8 15 -17
0 -11 -3 -14 -8 -7 -4 6 -17 16 -29 23 -20 10 -23 9 -23 -8 0 -11 5 -23 10
-26 19 -12 11 -33 -10 -28 -11 3 -20 0 -20 -6 0 -6 9 -11 19 -11 11 0 22 -6
24 -12 3 -7 6 1 6 17 1 23 4 27 11 15 5 -8 10 -28 10 -45 0 -24 -2 -27 -11
-15 -7 11 -9 5 -7 -25 1 -28 -2 -39 -11 -37 -7 1 -11 -3 -8 -10 2 -7 10 -12
16 -10 6 1 10 -11 10 -30 -1 -24 -3 -27 -6 -10 -3 14 -12 22 -24 22 -11 0 -20
7 -20 18 -1 9 -5 -1 -9 -23 l-7 -40 -8 43 c-4 24 -11 39 -14 33 -4 -6 -12 -7
-21 -1 -21 14 -30 12 -30 -5 0 -9 9 -15 24 -15 21 0 25 -5 28 -36 2 -28 9 -39
26 -45 21 -8 23 -6 20 18 -2 14 2 28 8 30 13 4 24 -27 27 -74 2 -27 0 -30 -15
-22 -15 8 -18 6 -18 -11 0 -18 10 -25 32 -21 13 2 22 -73 9 -77 -6 -2 -11 -17
-11 -33 0 -42 -17 -27 -25 22 -7 43 0 63 15 39 8 -13 10 -12 10 3 0 9 -6 17
-13 17 -15 0 -37 41 -37 70 0 10 -9 22 -20 25 -15 5 -20 15 -20 41 0 19 -4 33
-8 30 -4 -3 -6 -26 -2 -53 4 -37 9 -47 21 -45 12 2 19 -11 26 -48 6 -27 7 -50
3 -50 -9 0 -20 37 -20 70 0 19 -3 21 -12 12 -19 -19 -38 -14 -38 11 0 35 -11
67 -21 61 -5 -3 -9 -1 -9 4 0 6 7 13 16 16 15 6 15 8 2 24 -9 9 -19 28 -23 42
-4 14 -16 39 -26 56 -16 27 -17 33 -4 58 8 16 15 35 15 43 0 8 5 11 10 8 6 -3
10 0 10 8 0 8 -8 18 -17 21 -12 5 -13 10 -5 18 18 18 40 1 44 -33 2 -23 9 -33
22 -35 10 -1 23 -9 27 -16 6 -9 9 -4 9 15 0 15 -4 27 -9 27 -18 0 -41 32 -41
57 0 19 -4 24 -16 19 -10 -4 -14 -1 -12 6 9 25 33 13 44 -22 6 -19 18 -36 25
-39 8 -2 17 -9 21 -15 5 -7 8 -4 8 7 0 10 6 20 13 22 6 3 13 17 13 31 2 23 -1
25 -24 19 -33 -8 -41 -16 -24 -22 6 -3 12 -12 12 -21 0 -13 -3 -12 -15 4 -8
10 -15 31 -15 45 0 22 -5 27 -27 27 -26 0 -48 -20 -65 -58 -4 -10 -8 -5 -13
17 -4 18 -11 30 -16 27 -5 -3 -9 0 -9 6 0 7 8 9 20 5 16 -5 20 -2 21 17 1 13
1 27 0 32 -1 5 5 4 13 -4 14 -11 16 -9 16 10 0 13 -3 21 -6 17 -11 -10 -34 20
-40 53 -4 17 -9 28 -12 26 -2 -3 -13 -1 -24 5 -17 9 -19 8 -16 -8 2 -10 11
-17 20 -15 11 2 19 -11 27 -44 12 -48 10 -61 -8 -49 -6 3 -11 22 -11 42 0 26
-4 34 -14 30 -7 -3 -19 0 -25 6 -8 8 -11 5 -11 -11 0 -12 -4 -22 -10 -22 -5 0
-10 17 -10 38 0 27 3 33 10 22 7 -11 10 -7 10 18 0 21 -5 32 -15 32 -8 0 -19
16 -24 38 -8 27 -16 38 -31 39 -26 2 -26 -13 0 -27 13 -7 20 -21 20 -40 0 -16
5 -32 10 -35 6 -3 10 -11 10 -17 0 -6 -9 -3 -20 7 -12 11 -20 31 -20 49 0 24
-3 27 -10 16 -6 -10 -10 -11 -10 -2 0 6 -7 12 -15 12 -10 0 -15 -10 -15 -27 0
-38 -20 -16 -23 25 -1 18 -6 32 -10 32 -5 0 -5 5 -2 11 4 6 13 8 21 5 10 -4
14 2 14 21 0 21 2 24 15 13 13 -10 15 -9 15 9 0 12 -6 21 -15 21 -8 0 -15 5
-15 11 0 6 10 9 23 7 17 -2 23 -11 25 -36 3 -28 7 -33 22 -29 11 3 21 0 24 -7
3 -6 4 0 3 14 -1 16 3 24 11 23 6 -2 12 6 12 16 0 11 -6 22 -12 25 -7 3 -4 5
7 3 15 -2 21 -11 23 -40 2 -23 -1 -37 -8 -37 -6 0 -10 -10 -8 -22 2 -13 7 -21
11 -18 11 6 36 -38 37 -64 0 -11 5 -16 14 -13 7 3 19 0 26 -6 9 -9 11 -7 10 8
-4 33 0 41 10 25 8 -12 10 -9 10 13 0 16 -4 26 -9 23 -13 -8 -28 14 -35 54 -5
26 -4 31 3 20 8 -12 11 -6 11 25 0 29 -3 36 -10 25 -5 -8 -10 -10 -10 -4 0 5
5 15 12 22 16 16 28 -3 28 -45z m-529 -35 c15 -29 10 -32 -11 -8 l-20 23 0
-26 c0 -16 8 -30 19 -37 12 -6 21 -23 23 -43 2 -23 8 -32 20 -31 13 1 19 -9
24 -42 3 -24 10 -44 15 -44 5 0 9 -5 9 -10 0 -7 -6 -7 -19 0 -28 15 -31 13
-32 -17 l0 -28 -10 24 c-5 14 -10 44 -11 68 0 24 -5 46 -10 49 -6 4 -9 -6 -8
-22 3 -48 0 -62 -10 -39 -8 19 -9 19 -9 -3 -1 -12 5 -25 13 -28 8 -3 17 -21
20 -39 4 -21 14 -36 26 -40 11 -4 20 -14 20 -23 0 -9 3 -27 6 -39 4 -13 2 -23
-4 -23 -6 0 -13 17 -17 38 -4 28 -11 38 -26 39 -24 2 -25 -23 -1 -30 11 -2 21
-17 25 -33 3 -16 8 -36 12 -45 4 -10 0 -16 -10 -16 -8 0 -15 4 -15 9 0 4 -4 8
-9 8 -4 0 -6 -11 -3 -25 2 -15 0 -25 -7 -25 -6 0 -11 -7 -11 -16 0 -8 -4 -12
-10 -9 -5 3 -10 18 -10 33 0 21 2 24 10 12 7 -11 10 -5 10 25 0 29 3 36 10 25
5 -8 11 -12 14 -9 8 8 -5 49 -14 44 -12 -8 -27 17 -33 58 -6 37 7 53 16 20 3
-10 5 -5 6 12 1 20 -6 36 -19 45 -20 15 -30 77 -10 65 6 -4 10 8 10 30 0 22 4
34 10 30 6 -3 10 1 10 9 0 9 -4 16 -10 16 -5 0 -10 7 -10 15 0 8 -4 15 -10 15
-5 0 -10 8 -10 19 0 11 -9 21 -22 24 -18 5 -19 8 -8 22 9 11 16 13 24 5 20
-20 36 -12 26 14 -5 13 -6 27 -2 31 4 4 11 -8 15 -27 5 -18 13 -41 18 -50z
m-456 -85 c4 -24 3 -39 -4 -41 -16 -5 -13 -29 4 -36 8 -3 18 -24 21 -46 6 -34
10 -40 27 -38 15 2 22 -4 28 -26 5 -16 6 -33 3 -38 -3 -4 6 -8 20 -8 14 0 30
-8 36 -17 8 -14 9 -9 4 22 -7 45 10 39 21 -7 5 -21 3 -29 -9 -34 -17 -7 -22
-44 -6 -44 6 0 10 -5 10 -11 0 -6 -9 -8 -21 -4 -15 5 -22 2 -26 -14 -3 -12
-12 -21 -19 -21 -18 0 -18 -19 1 -40 13 -14 12 -16 -6 -17 -10 -1 -17 2 -14 7
3 5 -4 25 -15 45 -20 35 -19 55 1 55 5 0 14 -10 19 -22 7 -19 9 -15 10 22 1
44 1 45 15 20 14 -24 14 -25 15 -3 0 15 -10 28 -29 37 -16 9 -29 21 -28 28 1
36 -4 59 -12 53 -5 -3 -12 -1 -16 5 -10 17 -25 11 -25 -10 0 -11 3 -19 8 -19
22 4 30 -4 34 -31 6 -39 -9 -50 -18 -14 -4 15 -15 35 -25 45 -11 11 -19 30
-19 44 0 17 -4 23 -14 19 -22 -8 -32 57 -15 95 11 24 16 28 28 18 12 -10 13
-8 6 13 -4 14 -12 27 -16 28 -14 6 -10 22 5 22 8 0 17 -15 21 -37z m-109 -58
c3 -19 12 -35 19 -35 7 0 19 -20 27 -45 9 -25 11 -45 7 -45 -8 0 -23 41 -24
64 0 5 -12 10 -27 12 -22 2 -28 -2 -28 -17 0 -11 -4 -17 -10 -14 -6 4 -10 -7
-10 -26 0 -28 -2 -30 -16 -18 -14 11 -15 9 -9 -23 5 -26 3 -37 -8 -41 -8 -3
-14 0 -14 6 1 57 -4 79 -18 73 -8 -3 -15 -1 -15 4 0 6 7 11 15 11 35 3 38 4
42 14 3 9 -30 12 -69 6 -5 -1 -8 -20 -9 -43 l-1 -43 -15 38 c-9 20 -20 37 -24
37 -5 0 -9 6 -9 14 0 8 -5 16 -11 18 -6 2 -9 17 -7 33 l5 30 8 -32 c4 -18 10
-33 14 -34 3 0 14 -2 25 -4 30 -6 44 15 35 52 -10 48 8 51 22 3 7 -22 15 -40
18 -41 3 0 16 -2 28 -5 17 -3 20 0 15 18 -4 17 -2 20 11 15 13 -5 15 0 10 30
-8 48 14 36 23 -12z m-539 -139 c4 -28 1 -36 -11 -36 -20 0 -20 -14 -1 -34 25
-24 47 -9 40 28 l-6 31 15 -25 c18 -29 22 -85 5 -75 -6 4 -13 -2 -16 -14 -3
-12 -9 -21 -14 -21 -5 0 -9 -13 -9 -30 0 -16 -4 -30 -10 -30 -5 0 -10 -7 -10
-15 0 -8 9 -15 19 -15 11 0 22 -8 25 -17 4 -15 5 -15 4 2 -1 42 2 56 12 50 12
-8 13 -75 1 -75 -5 0 -12 -10 -16 -22 -7 -21 -8 -19 -14 12 -5 29 -11 36 -33
38 -20 3 -28 -1 -28 -13 0 -9 6 -15 13 -14 31 4 37 -2 37 -40 0 -33 3 -38 19
-34 14 4 20 -3 25 -27 9 -46 8 -62 -4 -55 -5 3 -10 -3 -10 -15 0 -11 -7 -23
-15 -27 -9 -3 -15 -13 -14 -22 3 -37 0 -44 -16 -31 -13 11 -15 10 -10 -4 3 -9
7 -23 10 -32 4 -13 8 -14 20 -4 13 11 15 7 15 -29 0 -22 -4 -41 -10 -41 -5 0
-10 5 -10 12 0 6 -2 9 -4 7 -3 -3 -1 -21 3 -42 8 -33 7 -37 -10 -37 -10 0 -19
-7 -19 -15 0 -8 5 -15 10 -15 6 0 10 -4 10 -10 0 -5 -6 -10 -14 -10 -9 0 -18
16 -23 42 -6 27 -14 42 -26 44 -11 1 -17 -4 -17 -17 0 -11 -7 -22 -15 -25 -8
-4 -15 -14 -15 -25 0 -10 -9 -23 -20 -29 -18 -10 -20 -8 -20 19 0 16 4 32 10
36 5 3 7 12 4 20 -4 8 1 18 10 21 9 3 16 15 16 25 0 24 17 25 23 2 4 -15 5
-14 6 3 0 11 -4 25 -11 32 -9 9 -9 15 0 24 10 10 15 10 22 -2 8 -13 10 -12 10
3 0 9 5 17 10 17 6 0 10 7 10 15 0 12 -5 13 -17 7 -24 -12 -43 -4 -43 17 0 10
-10 30 -21 45 -12 15 -25 44 -30 64 -7 34 -6 35 7 18 13 -19 14 -18 14 12 0
18 5 32 10 32 6 0 10 -13 10 -30 0 -23 5 -30 19 -30 15 0 20 -10 26 -47 4 -31
3 -49 -4 -51 -6 -2 -11 -10 -11 -18 0 -12 4 -12 20 -4 11 6 20 17 20 25 0 8 7
15 15 15 8 0 15 7 15 16 0 8 -5 12 -11 9 -15 -10 -38 25 -39 59 0 20 -4 27
-14 23 -8 -3 -17 2 -21 11 -14 33 -23 82 -15 82 11 0 31 -60 24 -71 -3 -5 4
-9 15 -9 15 0 22 -9 26 -34 8 -41 50 -57 59 -23 2 10 9 16 14 13 5 -3 7 6 4
19 -2 14 -11 25 -18 25 -8 0 -19 10 -23 23 -8 19 -9 18 -9 -11 1 -19 8 -36 17
-42 24 -13 6 -23 -18 -10 -13 6 -21 21 -21 37 0 15 -11 36 -25 49 -14 13 -25
33 -25 45 0 12 -3 19 -7 16 -3 -4 -12 -2 -20 5 -11 9 -15 7 -20 -10 -3 -12 -9
-22 -13 -22 -4 0 -6 -12 -4 -27 l4 -28 -15 30 c-15 33 -21 80 -6 57 6 -10 10
-8 14 8 3 12 10 20 14 17 5 -3 7 10 5 29 -6 48 16 44 24 -5 4 -27 12 -41 25
-44 14 -4 19 -14 19 -37 0 -28 3 -31 27 -28 14 2 29 9 31 17 3 8 0 11 -6 7
-24 -15 -42 6 -41 48 0 29 3 35 8 22 11 -28 20 1 11 34 -4 14 -3 32 1 42 6 11
4 18 -6 22 -9 3 -15 18 -14 38 0 31 1 31 10 10 5 -13 7 -28 3 -33 -3 -5 2 -9
10 -9 12 0 14 -7 10 -29 -4 -16 -1 -32 5 -35 7 -5 11 6 11 31 0 28 3 34 10 23
8 -12 10 -11 10 6 0 12 -10 25 -24 32 -17 8 -25 21 -28 49 -6 47 2 64 16 32
10 -23 10 -22 14 15 4 45 12 42 19 -8z m153 -226 c0 -10 9 -24 19 -30 27 -14
38 -70 17 -85 -19 -14 -22 -49 -3 -43 6 3 13 15 15 27 2 15 9 21 18 17 8 -3
14 0 14 6 0 30 13 -7 17 -47 3 -35 0 -45 -11 -45 -10 0 -13 -6 -10 -15 4 -8
15 -15 25 -15 14 0 19 7 19 25 0 37 17 30 23 -9 3 -19 15 -44 26 -55 12 -12
21 -19 21 -17 0 2 3 11 6 20 4 11 1 16 -10 16 -9 0 -16 7 -16 16 0 10 6 13 19
9 19 -6 36 18 25 36 -3 5 2 9 10 9 9 0 16 7 16 16 0 8 -4 12 -10 9 -5 -3 -10
-1 -10 4 0 21 21 11 33 -16 9 -21 9 -27 -1 -31 -6 -2 -12 -20 -12 -39 0 -30
-2 -34 -15 -23 -13 11 -15 8 -15 -14 0 -16 -5 -26 -15 -26 -11 0 -12 -5 -5
-26 12 -32 12 -34 0 -34 -6 0 -15 20 -22 45 -7 24 -15 40 -19 34 -3 -6 -9 1
-13 15 -3 14 -10 26 -15 26 -10 0 -2 -51 12 -68 15 -19 2 -25 -17 -7 -9 9 -16
25 -16 36 0 11 -8 23 -17 26 -10 4 -21 11 -25 17 -4 5 -10 -2 -13 -17 -4 -15
-11 -27 -16 -27 -5 0 -9 -9 -9 -21 0 -11 -4 -17 -10 -14 -6 4 -10 -5 -10 -20
0 -18 6 -29 18 -32 13 -3 19 -15 20 -46 2 -31 0 -38 -8 -27 -5 8 -10 24 -10
35 0 11 -9 28 -20 38 -12 10 -20 29 -20 47 0 20 -4 29 -11 25 -5 -4 -19 1 -30
11 -19 17 -19 17 -16 -3 3 -23 37 -62 37 -42 0 29 11 -3 15 -42 3 -30 1 -39
-5 -29 -5 8 -10 23 -10 32 0 11 -5 15 -15 12 -8 -4 -17 1 -21 10 -10 26 -24
18 -24 -14 0 -45 -17 -36 -23 12 -6 46 2 73 13 42 6 -16 9 -13 18 17 5 20 7
48 5 63 -4 19 -1 26 10 26 15 0 19 -7 31 -63 4 -16 11 -25 17 -21 6 4 15 0 20
-7 6 -10 9 -4 9 19 0 17 5 32 11 32 6 0 8 8 4 19 -7 23 14 39 26 20 6 -10 9
-8 9 9 0 13 -6 22 -15 22 -7 0 -19 8 -24 18 -9 14 -10 11 -11 -17 0 -44 -10
-34 -20 19 -6 33 -5 40 6 36 9 -3 14 2 14 13 0 11 5 21 11 23 7 2 7 12 1 28
l-10 25 -12 -27 c-18 -38 -26 -35 -28 8 -1 31 1 34 13 24 12 -10 15 -10 15 2
0 8 -5 19 -12 26 -9 9 -8 12 5 12 10 0 17 -8 17 -20z m310 -244 c0 -11 3 -31
6 -43 5 -17 2 -23 -10 -23 -21 0 -21 -26 0 -34 29 -11 36 -6 32 24 -3 17 -1
30 4 30 4 0 11 -18 14 -40 5 -33 10 -39 25 -35 15 5 19 -2 24 -39 5 -31 13
-47 25 -51 11 -4 19 -18 22 -41 6 -49 -10 -54 -18 -6 -5 30 -10 39 -25 38 -11
-1 -24 -7 -28 -15 -5 -7 -13 -11 -18 -8 -5 3 -9 -7 -8 -21 0 -18 -5 -26 -14
-24 -9 2 -12 -4 -9 -16 7 -27 -8 -53 -17 -30 -10 26 -1 63 14 60 10 -2 12 5 8
28 -5 22 -3 30 7 30 8 0 17 8 20 17 6 15 8 15 17 3 7 -11 9 -8 6 13 -5 44 -41
62 -52 27 -8 -26 -25 -16 -25 16 0 17 -5 24 -20 24 -18 0 -20 6 -19 53 1 28 4
42 6 30 2 -13 9 -23 15 -23 10 0 9 7 -8 68 -5 18 -3 21 10 16 9 -3 16 -16 16
-28z m795 -46 c4 -11 8 -41 10 -68 3 -26 9 -60 13 -77 10 -33 5 -58 -9 -49 -5
3 -9 24 -9 47 0 27 -3 37 -9 28 -7 -10 -12 -8 -26 10 -17 24 -17 24 -11 -15 4
-30 2 -36 -6 -28 -19 19 -25 14 -20 -18 4 -31 -6 -38 -26 -18 -8 8 -12 9 -12
1 0 -25 13 -43 31 -43 13 0 19 -7 19 -24 0 -32 10 -57 20 -51 11 7 40 -34 40
-56 0 -10 6 -19 13 -22 7 -2 0 -10 -15 -17 -28 -13 -40 -37 -14 -27 21 8 32
-12 34 -58 1 -37 0 -38 -10 -15 -6 14 -10 31 -9 39 2 9 -3 12 -13 8 -10 -4
-16 -1 -16 8 0 8 -4 15 -10 15 -5 0 -10 16 -10 35 0 19 5 35 10 35 6 0 10 11
10 24 0 19 -4 23 -19 19 -13 -3 -21 1 -24 14 -3 11 -5 6 -6 -12 0 -17 5 -37
12 -44 10 -10 9 -11 -4 -6 -9 3 -21 22 -27 41 -8 28 -7 37 5 50 14 13 13 17
-6 33 -12 10 -21 30 -21 45 0 16 -4 25 -10 21 -5 -3 -10 1 -10 9 0 19 26 21
33 4 3 -7 6 5 6 26 1 37 2 39 16 20 14 -18 14 -17 15 14 0 20 4 31 10 27 6 -4
10 7 10 27 0 25 3 29 10 18 5 -8 10 -27 10 -42 0 -16 5 -28 11 -28 6 0 9 6 6
14 -13 33 -19 106 -9 106 6 0 14 -9 17 -20z m201 -248 c7 -4 14 -27 18 -51 5
-37 4 -42 -9 -31 -24 20 -19 -16 5 -42 11 -12 20 -35 20 -52 0 -25 -2 -28 -11
-16 -8 12 -10 9 -6 -13 3 -17 -2 -34 -10 -43 -8 -8 -13 -24 -10 -34 4 -15 0
-20 -14 -20 -10 0 -19 -6 -19 -14 0 -17 30 -30 31 -13 0 7 4 3 9 -8 7 -16 9
-14 9 15 1 26 4 31 11 20 7 -11 10 -7 10 18 0 20 4 31 10 27 6 -3 10 -22 10
-41 0 -21 -4 -33 -10 -29 -5 3 -10 -3 -10 -14 0 -10 -6 -21 -12 -24 -10 -3
-10 -9 0 -26 9 -15 10 -27 3 -39 -6 -9 -11 -12 -11 -5 0 17 -30 4 -30 -13 0
-8 6 -11 15 -8 9 4 18 -1 22 -12 6 -16 8 -14 13 11 3 17 11 29 17 28 6 -1 8 8
5 22 -2 14 -8 22 -13 19 -5 -3 -9 2 -9 10 0 9 8 16 19 16 14 0 21 -11 28 -51
10 -47 9 -50 -8 -46 -14 4 -19 0 -19 -14 0 -13 6 -19 17 -17 11 2 19 -7 25
-27 10 -36 4 -57 -15 -49 -11 4 -13 -1 -10 -20 3 -14 10 -26 16 -26 7 0 7 -4
-1 -12 -16 -16 -23 -6 -32 44 -8 40 -3 68 7 41 9 -24 23 -13 23 18 0 26 -3 29
-14 20 -11 -9 -15 -9 -19 1 -4 8 -8 5 -12 -9 -11 -35 -25 -27 -26 15 0 20 -3
31 -6 25 -3 -10 -10 -9 -27 3 -22 14 -23 14 -19 -11 3 -13 9 -22 14 -19 5 3 6
-3 2 -12 -4 -11 -8 -13 -11 -6 -5 17 -32 15 -32 -2 0 -8 5 -18 11 -22 8 -4 8
-9 0 -17 -15 -15 -22 -5 -28 42 -5 39 8 58 20 29 3 -7 6 1 6 19 1 25 -2 31
-14 27 -9 -4 -15 0 -15 10 0 19 5 20 31 6 16 -9 19 -7 19 10 0 12 -4 18 -10
15 -5 -3 -10 1 -10 9 0 19 21 21 38 4 8 -8 12 -9 12 -1 0 25 -13 43 -31 43
-15 0 -19 7 -19 35 0 34 13 47 23 23 3 -7 6 -2 6 13 1 14 -4 30 -9 35 -6 6 -8
19 -4 28 5 13 9 15 15 5 5 -9 10 -5 14 14 4 15 11 24 16 21 5 -3 9 5 9 17 0
12 -3 20 -6 16 -14 -14 -34 24 -34 65 0 31 3 39 10 28 8 -12 10 -10 10 8 0 13
-4 20 -10 17 -5 -3 -10 1 -10 9 0 17 9 20 26 8z m230 -148 c7 -49 5 -60 -13
-58 -7 1 -13 -5 -13 -13 0 -8 5 -11 10 -8 19 12 40 -16 40 -51 0 -27 4 -34 19
-34 11 0 22 -6 24 -12 3 -7 4 4 3 25 -1 20 1 37 6 37 9 0 13 -9 22 -51 3 -15
15 -29 26 -32 14 -4 20 -14 20 -34 0 -15 2 -37 4 -48 2 -11 1 -15 -1 -8 -2 7
-11 9 -18 6 -11 -4 -12 -10 -5 -23 14 -26 12 -37 -5 -37 -9 0 -15 10 -15 24 0
13 -3 23 -8 23 -4 0 -6 -18 -4 -40 3 -25 0 -40 -7 -40 -6 0 -11 16 -11 36 0
30 -3 35 -17 30 -10 -4 -14 -4 -11 0 4 3 1 13 -7 21 -8 8 -15 28 -15 44 0 22
-5 29 -19 29 -15 0 -21 10 -26 40 -4 22 -11 38 -16 34 -5 -3 -9 -1 -9 5 0 5 5
13 10 16 12 7 4 25 -11 25 -5 0 -9 -7 -9 -15 0 -8 -4 -15 -10 -15 -5 0 -10 -9
-10 -21 0 -15 5 -19 15 -15 13 5 14 2 5 -15 -11 -20 -11 -20 -31 2 -10 12 -19
32 -19 45 0 14 -8 25 -20 29 -16 5 -20 15 -19 53 l1 47 12 -44 c8 -30 19 -46
34 -52 19 -7 22 -5 22 16 0 16 -6 25 -15 25 -17 0 -35 37 -32 68 2 32 17 15
17 -20 0 -21 6 -31 20 -35 11 -3 20 -9 20 -14 0 -5 5 -9 10 -9 6 0 8 10 4 24
-3 13 -1 27 5 30 6 4 11 0 11 -8 0 -8 4 -17 9 -20 4 -3 5 13 0 37 -11 57 -11
57 6 51 8 -3 17 -26 21 -50z m-551 -178 c5 -29 9 -36 16 -25 16 25 34 -16 29
-64 -1 -11 7 -21 18 -24 13 -3 22 -17 26 -38 4 -21 14 -35 26 -38 15 -4 20
-14 20 -36 0 -21 7 -35 24 -46 27 -18 42 -95 19 -95 -7 0 -13 -7 -13 -16 0
-10 6 -14 15 -10 8 3 15 1 15 -3 0 -5 -7 -11 -15 -15 -8 -3 -15 -1 -15 5 0 6
-4 8 -9 5 -5 -4 -12 0 -14 6 -3 7 -3 -5 -1 -27 6 -55 -16 -32 -23 25 -4 31 -3
41 6 36 6 -4 14 0 18 11 4 10 11 21 16 24 14 10 -3 51 -18 45 -9 -3 -15 10
-21 42 -4 26 -9 39 -12 29 -4 -18 -4 -18 -17 0 -7 10 -16 33 -20 51 -3 17 -10
32 -15 32 -5 0 -15 3 -24 6 -11 4 -16 1 -16 -10 0 -9 -4 -16 -10 -16 -5 0 -10
-14 -10 -31 0 -17 4 -28 10 -24 6 3 10 1 10 -4 0 -6 -9 -11 -20 -11 -16 0 -20
7 -20 36 0 23 -6 42 -17 50 -26 20 -31 17 -35 -18 -4 -33 -4 -33 -12 9 -6 28
-13 40 -20 36 -6 -4 -4 1 4 11 13 17 14 17 21 -1 6 -14 8 -13 8 10 1 37 21 35
21 -3 0 -23 4 -30 20 -30 11 0 20 -4 20 -10 0 -5 5 -10 11 -10 6 0 8 7 5 16
-3 8 1 28 9 45 15 28 15 29 -10 29 -19 0 -25 5 -25 21 0 11 -5 29 -10 40 -8
14 -7 23 2 33 16 17 23 7 33 -48z m-685 -201 c0 -13 7 -30 15 -39 17 -16 20
-36 6 -36 -5 0 -17 7 -25 16 -15 14 -16 13 -16 -10 0 -14 5 -26 10 -26 6 0 10
-7 10 -15 0 -18 -5 -18 -30 -5 -15 8 -18 7 -14 -4 3 -8 16 -16 30 -19 20 -3
24 0 24 19 0 13 4 24 9 24 5 0 13 10 17 23 7 21 7 21 15 2 14 -36 11 -68 -6
-61 -11 4 -15 -2 -16 -27 0 -27 -2 -29 -9 -12 -7 17 -9 15 -9 -12 -1 -18 2
-32 7 -32 25 4 33 -1 20 -15 -7 -7 -23 -13 -35 -11 -14 1 -23 -3 -23 -11 0 -8
5 -14 10 -14 6 0 10 -5 10 -12 0 -6 -9 -3 -20 7 -20 18 -20 17 -20 -9 0 -20 4
-26 17 -24 13 2 20 -7 27 -34 6 -22 17 -40 28 -44 10 -3 18 -10 18 -15 0 -5 5
-9 10 -9 19 0 10 20 -20 47 -24 21 -30 35 -30 66 0 34 2 38 15 27 13 -10 15
-9 15 9 0 11 5 21 11 21 6 0 9 12 7 28 -2 19 1 26 11 24 10 -2 12 4 7 23 -4
14 -2 25 3 25 14 0 20 -12 26 -61 6 -41 5 -43 -9 -25 -15 19 -16 18 -16 -12 0
-18 -4 -32 -10 -32 -5 0 -10 -7 -10 -15 0 -8 6 -15 14 -15 19 0 28 -15 36 -62
8 -43 8 -44 -14 -22 -15 14 -16 13 -16 -14 0 -17 6 -32 13 -35 6 -2 8 -8 4
-13 -5 -5 -14 0 -20 11 -11 19 -12 18 -18 -10 l-6 -30 -8 32 c-4 18 -10 32
-14 31 -28 -3 -39 5 -44 37 -3 19 -18 47 -32 62 l-27 28 7 -42 c4 -29 3 -43
-4 -43 -6 0 -11 13 -11 29 0 17 -4 33 -10 36 -5 3 -10 13 -10 21 0 8 5 14 10
14 15 0 50 38 50 55 0 9 -9 15 -25 15 -14 0 -25 -4 -25 -10 0 -5 5 -10 10 -10
6 0 10 -7 10 -15 0 -17 -2 -18 -24 -9 -11 4 -16 19 -16 46 0 23 -4 37 -10 33
-5 -3 -10 -1 -10 4 0 18 17 12 33 -11 14 -22 15 -20 10 25 -4 29 -2 47 5 47 6
0 13 -6 15 -12 3 -7 6 -2 6 12 1 20 3 22 11 10 8 -11 9 -3 6 28 -2 23 0 42 5
42 5 0 9 -4 9 -10 0 -5 4 -10 9 -10 6 0 7 16 4 37 -4 26 -3 34 5 29 7 -4 12
-18 12 -31z m-206 -95 c6 -42 6 -44 -9 -26 -14 19 -15 18 -15 -13 0 -27 -3
-32 -16 -27 -14 6 -16 1 -10 -31 4 -21 9 -51 12 -68 2 -16 7 -37 9 -47 3 -9 2
-19 -3 -22 -6 -3 -12 4 -15 15 -4 15 -11 20 -23 15 -13 -5 -14 -3 -7 6 6 7 13
28 16 46 5 24 3 32 -7 32 -8 0 -16 6 -19 13 -2 6 -8 -14 -12 -45 -7 -55 -25
-72 -25 -25 0 36 -12 46 -40 35 -23 -8 -23 -10 -7 -19 9 -6 15 -14 12 -20 -10
-15 -21 -10 -33 14 -10 21 -11 20 -11 -11 -1 -26 -5 -32 -18 -30 -14 2 -17 -3
-15 -21 2 -15 0 -21 -7 -17 -6 4 -11 24 -11 44 0 27 3 33 10 22 8 -12 10 -12
15 2 9 24 -3 40 -26 33 -15 -5 -19 -1 -20 17 -1 25 -3 20 -14 -27 l-7 -30 -14
45 c-8 25 -14 46 -14 47 0 0 9 -1 20 -4 15 -4 20 0 20 16 0 18 -3 20 -19 11
-16 -8 -20 -6 -24 13 -3 15 -5 11 -6 -13 -2 -34 -3 -34 -12 -10 -6 14 -8 32
-6 42 3 11 -1 16 -14 15 -11 -1 -19 -5 -19 -10 0 -4 -4 -5 -10 -2 -5 3 -10 -1
-10 -9 0 -9 5 -16 10 -16 6 0 10 -4 10 -10 0 -15 -17 -12 -24 5 -8 23 15 129
25 113 5 -7 9 -22 9 -33 0 -11 11 -25 25 -32 22 -10 25 -9 25 8 0 10 -4 19
-10 19 -5 0 -10 4 -10 10 0 5 7 7 16 3 10 -4 17 1 21 16 3 11 9 21 13 21 15 0
18 -51 4 -65 -20 -19 -18 -47 3 -43 12 2 19 -8 26 -37 5 -22 11 -41 12 -43 1
-1 15 2 30 8 22 8 30 8 37 -2 5 -8 6 9 2 40 -7 56 10 75 23 25 9 -35 10 -40
12 -55 1 -9 4 -9 11 2 8 13 9 13 14 0 2 -8 7 -22 9 -30 3 -8 6 -1 6 17 1 17 6
35 11 38 6 3 10 19 10 36 0 29 14 40 23 17 3 -7 6 -3 6 9 1 12 -5 23 -11 26
-10 4 -10 7 0 18 11 12 16 11 28 -5 13 -18 14 -17 14 20 1 49 15 28 24 -36z
m440 38 c9 -36 7 -80 -4 -73 -5 3 -10 -1 -10 -10 0 -8 -7 -18 -15 -21 -10 -4
-13 -13 -10 -25 5 -13 1 -19 -10 -19 -9 0 -15 -7 -13 -16 2 -10 -3 -19 -9 -21
-7 -3 -13 3 -13 13 0 9 -3 15 -6 11 -10 -10 6 -46 33 -75 l26 -27 -6 38 c-3
20 -2 37 4 37 5 0 9 -8 9 -17 0 -12 3 -14 11 -6 8 8 8 17 -1 32 -11 22 -5 45
10 36 4 -3 11 -23 15 -45 4 -22 10 -39 13 -39 21 3 31 -4 41 -28 9 -25 10 -24
4 12 -3 22 -10 45 -15 52 -12 16 7 26 20 10 6 -6 13 -30 18 -51 6 -32 3 -42
-12 -54 -13 -10 -15 -16 -6 -19 6 -3 12 -9 12 -15 0 -6 -7 -8 -15 -4 -8 3 -24
-4 -35 -16 l-20 -22 0 43 c0 27 -4 40 -10 36 -6 -4 -17 -1 -25 5 -13 10 -15 8
-15 -14 0 -16 -4 -25 -10 -21 -5 3 -10 19 -10 35 0 24 -4 28 -21 25 -30 -6
-36 -14 -19 -25 8 -5 11 -12 7 -16 -12 -13 -24 9 -31 56 l-6 45 15 -30 c14
-27 15 -28 11 -5 -3 14 -8 37 -11 53 -6 21 -4 27 9 27 9 0 16 8 16 20 0 22 15
27 24 8 4 -7 4 -3 2 10 -3 14 1 25 10 29 8 3 13 12 10 20 -3 7 1 16 10 20 11
4 13 13 9 34 -8 34 10 40 19 7z m342 -53 c4 -8 7 -26 8 -40 1 -19 6 -25 18
-22 9 3 19 -2 22 -10 9 -23 7 -53 -4 -53 -5 0 -10 12 -10 26 0 14 -4 23 -9 19
-5 -3 -17 5 -26 17 -16 23 -16 22 -13 -17 2 -33 0 -40 -14 -39 -10 1 -18 -2
-18 -6 0 -12 26 -30 33 -23 4 3 7 1 7 -6 0 -7 4 -10 9 -6 5 3 8 17 5 30 -2 14
0 25 5 25 10 0 25 -69 17 -78 -3 -3 -6 0 -6 6 0 7 -4 12 -8 12 -4 0 -8 -15 -8
-34 0 -26 3 -33 16 -28 13 5 13 3 1 -11 -14 -18 -37 -24 -26 -8 3 5 1 12 -5
16 -5 3 -10 -3 -10 -14 0 -12 7 -21 15 -21 16 0 35 -38 35 -71 0 -10 -7 -19
-15 -19 -8 0 -15 -7 -15 -15 0 -8 -4 -15 -10 -15 -12 0 -13 43 -1 56 5 5 12
20 16 34 4 17 3 21 -3 11 -7 -9 -12 -10 -16 -2 -4 6 -12 9 -17 6 -5 -4 -9 6
-9 21 0 15 -7 36 -17 46 -15 17 -15 18 0 18 10 0 17 8 17 20 0 11 -4 20 -9 20
-12 0 -20 36 -13 62 5 21 6 21 14 2 5 -12 6 -4 3 25 -5 36 -3 42 10 38 10 -5
15 0 15 14 0 11 -4 17 -10 14 -5 -3 -10 -1 -10 4 0 17 30 13 36 -4z m670 -490
c-18 -28 -14 -60 8 -68 9 -4 15 4 18 23 4 24 2 27 -9 19 -8 -7 -13 -8 -13 -1
0 12 26 23 34 15 3 -4 6 -27 6 -52 0 -33 -3 -42 -10 -31 -7 12 -10 8 -10 -15
0 -16 -9 -41 -20 -55 -11 -14 -20 -35 -20 -48 0 -13 -4 -21 -9 -18 -5 3 -11
-3 -14 -14 -4 -14 0 -20 12 -20 9 0 22 -5 28 -11 7 -7 9 -3 5 17 -3 17 -1 25
5 21 12 -8 23 -77 12 -77 -4 0 -10 6 -12 13 -3 6 -6 0 -6 -15 -1 -18 4 -28 14
-28 7 0 19 -8 25 -17 8 -14 9 -10 4 20 -4 24 -2 37 5 37 6 0 11 -8 11 -17 0
-10 7 -30 14 -45 16 -29 8 -42 -18 -32 -9 3 -16 1 -16 -5 0 -6 5 -11 10 -11 6
0 10 -7 10 -16 0 -11 -6 -14 -20 -9 -14 5 -20 2 -20 -10 0 -9 -9 -25 -20 -37
-11 -12 -20 -30 -20 -39 0 -10 -7 -24 -15 -33 -20 -20 -19 -36 4 -36 12 0 21
-9 25 -27 3 -16 8 -39 12 -53 5 -24 5 -24 -10 -6 -9 11 -16 27 -16 35 0 9 -12
27 -25 40 -27 25 -35 74 -12 65 10 -3 13 3 9 24 -4 32 -29 39 -49 13 -11 -14
-12 -12 -13 12 0 18 4 26 11 21 8 -5 10 6 7 35 -3 39 5 55 15 29 3 -8 6 -6 6
5 1 9 -12 31 -29 48 l-29 31 9 -33 c12 -42 12 -49 1 -49 -5 0 -11 18 -15 40
-5 30 -2 45 11 60 16 19 18 19 25 3 5 -11 7 -2 6 24 -1 23 1 45 5 49 4 4 8 -4
8 -17 1 -17 3 -14 8 11 4 20 12 34 19 33 7 -2 12 9 12 27 0 17 4 30 8 30 9 0
32 44 32 62 0 5 -6 8 -14 5 -9 -4 -16 4 -20 25 -7 36 -7 89 1 71 2 -7 9 -13
15 -13 6 0 8 6 5 14 -7 18 4 29 16 17 7 -7 4 -19 -7 -36z m-687 -93 c1 -19 5
-22 21 -17 11 3 20 3 20 -2 0 -4 4 -25 9 -45 5 -21 5 -38 1 -38 -5 0 -11 18
-15 40 -4 22 -11 38 -16 35 -5 -3 -18 -1 -30 6 -19 10 -21 9 -16 -6 4 -9 7
-21 7 -26 0 -5 9 -9 19 -9 20 0 31 -19 31 -55 0 -12 7 -26 16 -29 8 -3 12 -11
8 -17 -5 -8 -10 -6 -16 5 -5 9 -13 14 -19 11 -5 -4 -9 -3 -10 2 -2 24 -8 46
-15 51 -4 4 -3 -9 1 -28 13 -59 11 -75 -6 -74 -11 1 -15 -5 -12 -17 3 -11 10
-19 16 -19 6 0 8 -2 5 -5 -14 -14 -38 9 -38 36 0 34 -9 37 -34 8 -20 -24 -31
-17 -39 28 -4 22 -2 33 8 37 10 4 13 14 9 36 -4 19 -2 30 5 30 6 0 11 -6 11
-12 0 -36 22 -87 34 -82 8 3 16 -2 19 -13 3 -10 5 8 6 39 0 31 -3 60 -9 63 -5
3 -10 19 -10 36 0 16 -4 29 -10 29 -5 0 -10 5 -10 10 0 6 9 10 20 10 14 0 20
7 21 23 0 21 1 21 9 2 5 -11 9 -30 9 -43z"/>
<path d="M4200 14229 c-36 -5 -75 -14 -87 -21 -12 -6 -39 -14 -59 -17 -49 -8
-65 -33 -39 -61 17 -19 26 -20 104 -14 47 3 196 5 330 4 l243 -2 -7 23 c-10
34 -45 69 -82 85 -37 16 -294 18 -403 3z"/>
<path d="M4262 13932 c-93 -27 -122 -39 -120 -51 2 -11 16 -15 55 -14 29 1 60
6 70 11 30 15 113 25 113 13 0 -6 -4 -11 -9 -11 -5 0 -14 -13 -21 -30 -12 -28
-11 -45 6 -115 6 -25 5 -28 -7 -19 -13 11 -117 46 -165 57 -30 6 -47 -7 -40
-31 5 -14 32 -30 89 -52 45 -18 106 -43 135 -56 55 -25 122 -43 159 -44 29 0
63 57 39 66 -21 8 -9 31 19 38 28 7 65 64 64 97 0 13 -12 58 -27 99 l-27 75
-105 1 c-93 2 -119 -2 -228 -34z"/>
<path d="M4291 12925 c-95 -31 -271 -116 -271 -132 0 -19 27 -29 70 -25 24 3
37 8 33 15 -3 6 -1 7 6 3 6 -4 45 0 86 10 l74 17 101 -41 c115 -48 137 -50
174 -21 22 17 25 24 14 31 -8 5 -2 6 16 2 18 -4 27 -3 23 3 -4 6 5 21 18 33
16 15 25 35 25 54 0 28 -1 29 -14 11 -13 -18 -17 -17 -96 23 -98 50 -147 54
-259 17z"/>
<path d="M4138 12695 c-6 -6 -27 -10 -80 -14 -5 -1 -8 -17 -8 -37 0 -28 3 -35
15 -31 8 4 70 12 137 18 121 12 125 12 228 -15 58 -15 112 -29 120 -30 8 -2
18 -14 21 -27 6 -20 14 -10 10 14 0 4 6 7 14 7 10 0 15 11 15 35 0 29 -4 35
-22 36 -13 0 -30 2 -38 4 -8 1 -40 7 -70 13 -121 24 -328 40 -342 27z"/>
<path d="M3795 10340 c-4 -6 -2 -16 3 -23 7 -8 6 -20 -3 -37 -19 -34 -19 -70
0 -70 8 0 15 -4 15 -10 0 -13 37 -7 52 8 7 7 16 12 21 12 16 0 36 34 37 61 0
37 -38 69 -83 69 -20 0 -39 -5 -42 -10z"/>
<path d="M3513 10204 c-10 -26 9 -47 73 -79 168 -86 266 -120 369 -130 39 -4
86 -9 105 -11 19 -3 75 -8 123 -11 83 -5 89 -4 109 17 l22 23 -23 18 c-17 14
-41 19 -85 20 -33 0 -69 2 -80 4 -10 2 -51 6 -90 10 -90 7 -113 10 -156 20
-49 10 -192 66 -211 82 -8 7 -21 13 -27 13 -6 0 -26 9 -44 20 -40 24 -76 26
-85 4z"/>
<path d="M11408 15554 c-7 -7 24 -80 41 -97 29 -29 -3 -87 -52 -94 -33 -5
-138 -59 -171 -88 -16 -14 -33 -22 -37 -18 -11 11 1 54 11 48 5 -3 11 -1 15 5
3 5 15 10 26 10 10 0 19 5 19 10 0 6 7 10 15 10 15 0 21 21 9 32 -3 4 -37 -7
-76 -23 -38 -16 -73 -28 -76 -27 -4 1 -18 -4 -31 -11 -20 -11 -35 -11 -80 -1
-88 19 -94 20 -183 26 -45 3 -91 10 -100 15 -21 11 -222 14 -258 4 -14 -4 -86
-8 -160 -9 -109 -2 -146 -6 -193 -24 -51 -18 -139 -66 -170 -93 -54 -45 -73
-59 -79 -59 -5 0 -8 -6 -8 -13 0 -8 -11 -20 -25 -27 -14 -7 -49 -41 -78 -74
-28 -33 -60 -68 -69 -78 -10 -10 -18 -20 -18 -23 0 -3 -16 -28 -35 -55 -19
-27 -35 -54 -35 -60 0 -5 -9 -29 -19 -52 -28 -64 -71 -204 -71 -232 0 -14 -4
-27 -9 -30 -8 -5 -15 -136 -15 -274 1 -58 4 -75 19 -86 16 -11 16 -14 3 -22
-8 -5 -23 -35 -33 -67 -18 -57 -18 -59 4 -134 12 -42 36 -101 52 -131 16 -30
29 -59 29 -64 0 -4 16 -31 35 -58 19 -27 35 -53 35 -58 0 -4 16 -24 36 -45 37
-38 74 -49 74 -22 0 8 -6 15 -13 15 -13 0 -57 40 -57 53 0 17 61 -32 81 -65
13 -21 32 -38 41 -38 10 0 18 -4 18 -10 0 -5 -4 -10 -9 -10 -5 0 -20 -14 -32
-31 -23 -33 -53 -174 -45 -218 2 -14 7 -46 11 -71 4 -25 11 -49 15 -55 4 -5
15 -36 24 -67 9 -31 21 -60 26 -63 6 -3 10 -13 10 -22 0 -22 66 -101 98 -117
46 -23 89 -26 133 -11 23 8 44 15 47 15 6 0 -3 -89 -20 -190 -8 -46 -11 -108
-7 -160 7 -90 9 -103 34 -190 9 -30 19 -66 22 -80 3 -14 15 -34 27 -46 51 -51
56 -64 51 -138 -6 -93 -14 -142 -31 -195 -16 -48 -69 -121 -87 -121 -7 0 -23
-10 -37 -23 -31 -29 -137 -97 -150 -97 -6 0 -10 -3 -10 -8 0 -10 -47 -29 -94
-37 -40 -7 -156 -78 -156 -95 0 -6 -15 -32 -32 -58 -31 -45 -40 -62 -83 -157
-22 -49 -43 -242 -33 -310 3 -27 7 -75 7 -105 1 -30 10 -90 20 -135 18 -74 26
-120 66 -370 21 -132 24 -196 30 -690 3 -247 8 -493 11 -545 4 -52 9 -500 13
-995 l7 -900 36 -76 c37 -79 96 -154 129 -164 10 -4 19 -15 19 -25 0 -10 4
-21 9 -24 4 -3 11 -31 14 -63 3 -32 18 -101 32 -153 52 -188 56 -205 65 -240
5 -19 10 -57 10 -85 0 -50 22 -229 40 -335 36 -200 49 -499 42 -945 -6 -413
-6 -584 -3 -1150 2 -299 21 -627 42 -710 5 -22 14 -78 19 -125 5 -47 14 -123
19 -170 14 -115 15 -432 1 -500 -6 -30 -15 -120 -20 -200 -4 -80 -15 -176 -24
-215 -31 -145 -37 -211 -21 -242 9 -16 13 -40 9 -55 -3 -14 0 -29 6 -33 7 -4
8 -37 5 -98 -19 -309 -30 -380 -69 -455 -21 -41 -20 -98 2 -127 9 -12 24 -33
32 -45 27 -40 95 -125 103 -128 4 -2 13 -9 20 -16 34 -34 145 -101 186 -112
25 -7 82 -23 126 -35 138 -39 294 -33 490 17 33 9 86 20 117 25 32 5 75 16 95
25 41 17 221 34 293 27 25 -2 88 -16 140 -30 202 -54 261 -63 350 -57 47 3 99
10 115 16 59 20 116 52 126 70 8 14 14 16 28 8 10 -5 20 -7 23 -5 2 2 20 6 38
9 19 2 42 7 50 10 8 3 26 7 40 10 14 2 47 9 73 15 26 6 87 12 135 12 112 1
159 13 200 52 57 54 77 109 77 212 0 106 -29 198 -78 247 -30 29 -123 78 -149
78 -8 0 -18 4 -24 9 -9 10 -119 41 -231 66 -114 25 -366 168 -447 253 -20 20
-70 72 -111 114 -50 52 -75 85 -75 101 0 13 -6 32 -14 42 -10 14 -11 26 -5 43
17 43 9 164 -12 197 -29 47 -108 203 -103 207 2 2 -6 33 -17 69 -12 38 -20 89
-19 127 0 46 -8 87 -30 151 -30 90 -43 221 -20 221 6 0 10 17 10 37 0 26 -8
45 -25 63 -32 33 -45 105 -46 257 0 85 -6 133 -25 200 -13 48 -24 111 -24 140
0 28 -4 54 -8 57 -5 3 -7 19 -4 35 3 21 -5 48 -24 83 -22 43 -27 64 -25 113 1
33 -12 220 -28 415 -67 793 -72 906 -71 1674 l0 669 -25 34 c-26 33 -26 33 -4
33 22 0 22 1 15 138 -18 389 -28 896 -22 1127 10 405 25 568 117 1215 58 411
62 430 114 591 76 234 90 308 89 464 0 116 -4 146 -37 277 -57 223 -191 613
-232 673 -35 51 -88 108 -99 106 -19 -3 -26 1 -26 13 0 8 -21 25 -46 38 -63
31 -122 92 -134 139 -6 21 -14 40 -19 43 -14 9 -22 116 -15 202 7 93 -3 82
131 133 281 107 348 172 411 401 21 74 31 118 73 320 25 121 39 154 91 211 21
23 38 43 38 45 0 2 18 29 40 60 22 32 40 65 40 75 0 9 4 19 9 21 6 2 12 14 14
28 2 14 9 38 16 55 9 21 9 36 2 53 -8 17 -8 21 0 17 7 -5 8 7 3 41 -7 52 -17
77 -64 164 -17 30 -30 64 -30 75 0 12 -6 27 -12 33 -21 21 -23 237 -3 391 26
199 10 460 -31 512 -6 8 -19 31 -29 51 -16 35 -16 40 1 85 10 26 21 50 26 53
4 3 10 24 14 45 3 22 10 47 14 55 4 8 8 38 7 65 0 28 3 57 6 65 20 50 23 88 9
135 -8 28 -17 73 -21 100 -4 28 -10 55 -14 62 -4 7 -2 21 5 32 10 16 8 25 -15
58 -15 22 -27 48 -27 59 0 18 -77 104 -93 104 -4 0 -16 9 -27 20 -11 11 -29
20 -39 20 -11 0 -23 9 -26 20 -6 19 -34 27 -47 14z m-240 -664 c26 0 41 -4 37
-10 -10 -16 13 -47 40 -54 77 -20 292 -197 332 -274 31 -58 63 -168 64 -216 0
-28 4 -73 7 -101 4 -27 1 -104 -5 -170 -31 -303 -32 -309 -17 -396 16 -95 43
-168 91 -251 26 -44 33 -68 33 -107 0 -102 -62 -239 -144 -321 -19 -19 -36
-39 -36 -43 0 -4 -10 -21 -21 -37 -19 -25 -22 -45 -25 -142 -1 -62 -7 -126
-13 -141 -6 -16 -11 -38 -11 -49 0 -12 -8 -40 -18 -62 -22 -50 -42 -104 -49
-132 -6 -29 -110 -165 -150 -199 -29 -23 -33 -25 -33 -8 -1 51 -53 71 -202 77
-37 2 -73 8 -81 14 -8 7 -16 9 -19 7 -8 -8 -38 107 -38 147 0 19 -8 46 -19 59
-13 17 -23 62 -35 159 -17 133 -33 190 -51 180 -5 -3 -9 -34 -10 -70 -3 -81
-2 -80 -25 -52 -17 21 -19 21 -29 5 -6 -11 -11 -13 -11 -5 0 7 -8 12 -17 10
-15 -3 -19 8 -25 64 -6 67 -39 135 -58 123 -5 -3 -6 -28 -3 -55 3 -28 1 -50
-3 -50 -5 0 -19 16 -31 35 -15 23 -28 32 -38 29 -12 -5 -15 2 -15 31 0 40 -35
99 -52 89 -6 -4 -7 -27 -3 -60 8 -65 -6 -71 -29 -13 -20 50 -64 109 -78 106
-12 -2 -31 54 -47 143 -13 71 -58 173 -75 167 -5 -2 -18 5 -28 15 -10 10 -23
16 -27 13 -14 -8 -22 24 -28 105 -3 41 -11 86 -18 100 -28 54 -36 159 -24 304
6 76 9 154 6 172 -4 20 2 55 14 89 10 30 19 66 19 81 0 16 10 34 26 47 15 11
33 34 40 51 8 17 20 40 27 50 54 86 77 127 77 139 0 8 6 20 14 26 15 13 50
125 48 156 -1 15 15 28 71 54 40 18 117 55 172 81 132 64 167 78 211 84 20 4
39 8 43 10 3 2 28 7 56 11 27 3 51 8 53 9 1 2 28 -3 60 -10 31 -8 76 -14 100
-14z m-1024 -225 c18 -14 18 -16 3 -33 -10 -10 -17 -35 -17 -55 0 -35 -35
-107 -60 -122 -5 -3 -10 -15 -10 -26 0 -23 -15 -25 -24 -4 -3 8 -14 15 -26 15
-20 0 -20 0 1 38 12 20 28 41 37 46 14 8 13 10 -2 22 -17 12 -17 14 7 38 14
14 37 28 50 31 32 8 45 35 17 35 -20 0 -26 11 -13 23 9 10 15 8 37 -8z m-153
-1026 c24 -21 32 -39 40 -90 6 -35 14 -68 19 -74 5 -6 10 -67 11 -136 0 -68 4
-128 9 -134 14 -18 36 -247 24 -243 -5 1 -22 -10 -37 -24 -23 -22 -35 -26 -60
-21 -84 16 -126 67 -172 208 -35 104 -40 224 -12 285 22 50 80 99 137 116 28
8 50 19 50 25 0 22 -22 50 -35 45 -16 -6 -30 28 -18 46 4 7 7 24 6 38 -1 18 0
20 3 5 3 -11 19 -32 35 -46z m454 -1519 c24 -16 54 -30 68 -30 13 0 27 -3 30
-6 10 -10 120 -54 135 -54 6 0 12 -4 12 -10 0 -5 9 -10 19 -10 39 0 51 -11 44
-38 -8 -35 18 -53 60 -41 43 12 47 12 41 -6 -4 -8 -2 -21 4 -28 6 -7 11 -48
13 -92 2 -82 12 -121 56 -212 19 -40 41 -65 93 -103 140 -104 221 -213 287
-390 51 -135 136 -438 144 -515 20 -184 21 -244 10 -326 -15 -102 -73 -306
-106 -374 -20 -41 -35 -126 -84 -475 -98 -690 -118 -893 -127 -1305 -6 -231 4
-702 22 -1097 l7 -138 -61 0 c-45 0 -73 -7 -111 -25 -28 -14 -53 -30 -56 -36
-4 -5 -22 -7 -43 -3 -19 4 -43 8 -51 9 -40 4 -100 18 -147 35 -29 11 -55 16
-58 12 -4 -3 -10 -1 -14 5 -8 12 -128 62 -168 69 -14 3 -36 11 -47 19 -12 7
-47 27 -77 43 -30 17 -59 36 -63 44 -6 9 8 31 43 67 60 64 76 99 95 205 19
105 7 146 -50 177 -22 12 -42 23 -43 25 -2 1 -6 29 -9 61 -3 42 -10 62 -24 73
-31 23 -113 104 -137 135 -28 36 -29 111 -2 190 11 31 21 74 22 95 2 21 6 36
11 33 4 -2 7 -1 8 4 7 71 11 101 16 113 8 18 10 30 23 140 25 212 43 339 57
390 8 30 17 84 19 120 3 36 9 83 14 106 5 22 12 65 15 95 3 30 14 95 25 144
22 108 39 212 50 320 5 44 16 105 24 135 9 30 16 70 16 87 0 36 21 167 50 313
10 52 26 138 35 190 9 52 23 127 32 165 15 64 30 156 36 213 1 12 5 22 8 22 4
0 12 65 19 145 11 116 11 159 1 217 -23 133 -39 161 -71 123 -10 -13 -10 -19
3 -33 35 -39 2 -421 -63 -737 -10 -49 -26 -130 -35 -180 -9 -49 -25 -119 -35
-155 -10 -36 -26 -121 -35 -190 -9 -69 -23 -157 -31 -197 -7 -40 -16 -103 -19
-140 -3 -37 -12 -104 -20 -148 -52 -301 -86 -517 -85 -555 0 -14 -7 -53 -16
-85 -19 -71 -41 -205 -54 -330 -12 -108 -35 -241 -55 -310 -31 -113 -47 -205
-42 -254 6 -62 59 -139 136 -195 51 -37 55 -45 51 -98 -3 -48 10 -68 61 -93
36 -19 49 -31 49 -47 0 -35 -30 -151 -47 -183 -28 -52 -96 -109 -188 -160
-114 -62 -169 -65 -270 -14 -81 40 -99 57 -126 117 -55 118 -56 145 -58 963
-1 393 -3 724 -5 735 -2 10 -7 181 -10 379 -6 349 -10 531 -21 895 -6 171 -16
261 -55 465 -47 250 -52 284 -53 425 -1 116 2 155 15 186 9 21 29 70 45 108
28 70 113 176 140 176 7 0 13 4 13 9 0 9 33 24 55 26 29 2 280 164 347 224 60
54 79 103 85 221 6 139 7 141 48 138 25 -1 42 4 57 20 30 29 51 28 103 -8z
m239 -5432 c7 -5 4 -8 -6 -8 -10 0 -18 7 -18 15 0 8 -4 15 -10 15 -5 0 -10
-14 -10 -31 0 -25 3 -29 19 -24 20 6 31 -16 31 -62 0 -13 5 -22 11 -20 6 1 13
-2 15 -8 5 -15 -21 -45 -44 -50 -18 -3 -22 3 -28 41 -3 25 -4 48 0 51 10 10
16 -1 20 -38 3 -34 25 -47 34 -20 3 8 0 11 -7 7 -7 -5 -11 1 -11 13 0 30 -21
71 -37 71 -7 0 -14 6 -14 13 -1 6 -4 -1 -8 -18 -4 -16 -12 -29 -19 -27 -7 1
-12 -7 -12 -18 0 -11 5 -20 10 -20 6 0 10 -7 10 -15 0 -20 -32 -16 -42 5 -4
10 -7 6 -7 -12 -1 -14 5 -29 12 -31 7 -3 5 -6 -5 -6 -10 -1 -18 6 -18 14 0 8
-4 15 -9 15 -6 0 -6 -12 -1 -29 8 -29 5 -41 -12 -41 -12 0 -10 68 2 75 6 3 10
18 10 32 0 23 2 24 17 12 9 -8 14 -9 10 -2 -10 16 3 45 18 39 21 -8 11 25 -11
37 -26 14 -34 27 -34 60 0 28 19 39 21 12 1 -8 3 -19 4 -25 1 -5 3 -17 4 -25
0 -8 6 -15 12 -15 5 0 7 5 4 10 -3 6 1 10 9 10 9 0 16 -4 16 -10 0 -5 4 -10
10 -10 5 0 7 7 3 15 -3 9 3 25 12 35 10 11 15 20 11 20 -4 0 -4 6 1 12 5 9 11
1 17 -22 5 -19 15 -38 20 -42z m-38 -225 c-3 -7 -1 -15 5 -18 5 -4 7 -11 4
-16 -4 -5 -1 -9 6 -9 7 0 9 10 6 30 -4 16 -2 32 3 35 5 3 12 -15 15 -40 5 -29
11 -43 19 -38 6 3 5 0 -2 -8 -11 -12 -14 -12 -22 1 -14 23 -24 3 -12 -24 9
-19 8 -25 -4 -30 -9 -3 -14 1 -15 12 0 14 -2 14 -9 -3 -4 -11 -4 -24 1 -29 5
-6 9 -17 9 -25 -1 -30 -30 21 -30 52 0 17 -4 26 -10 22 -7 -4 -8 -27 -4 -58 5
-43 4 -50 -7 -40 -7 7 -13 34 -13 62 0 28 -3 48 -7 45 -8 -5 -17 40 -18 85 0
22 1 22 14 5 15 -20 18 -16 16 31 l-1 30 12 -25 c12 -24 12 -24 16 15 l5 40
13 -45 c8 -25 12 -50 10 -57z m-73 -605 c19 -3 22 -11 25 -51 2 -29 -1 -47 -6
-43 -6 3 -12 -1 -16 -9 -3 -8 0 -15 6 -15 16 0 37 -32 38 -57 0 -13 5 -23 10
-23 6 0 10 -5 10 -10 0 -6 -10 -8 -24 -4 -21 5 -23 3 -20 -23 2 -15 1 -22 -2
-15 -10 20 -24 13 -24 -12 0 -13 6 -26 13 -29 6 -2 9 -8 5 -12 -13 -14 -38 16
-38 46 0 18 -6 30 -18 33 -12 4 -22 22 -29 51 -11 46 2 65 13 20 3 -14 10 -25
15 -25 6 0 6 7 1 18 -4 9 -7 27 -7 39 2 13 -2 20 -11 16 -6 -2 -14 4 -17 14
-3 10 -8 28 -12 41 -4 13 -2 22 4 22 6 0 11 -13 11 -30 0 -23 5 -30 19 -30 26
0 46 -79 24 -96 -18 -15 -17 -31 3 -38 23 -9 22 -9 26 32 4 36 4 36 15 12 l12
-25 0 25 c1 15 -7 30 -19 38 -11 7 -20 23 -20 36 0 14 -4 28 -10 31 -5 3 -10
14 -9 23 0 14 2 13 9 -3 5 -11 9 -15 9 -10 1 6 6 3 11 -5 8 -12 10 -12 9 5 -1
30 -12 50 -28 50 -8 0 -15 9 -17 19 -2 11 -5 30 -9 43 -3 13 -2 29 2 36 4 7
11 -7 16 -35 7 -37 13 -48 30 -50z m358 -68 c1 8 5 2 8 -15 4 -16 4 -38 -1
-47 -4 -9 -8 -27 -8 -39 0 -12 -8 -27 -17 -34 -15 -11 -15 -13 5 -19 17 -6 22
-15 22 -42 0 -27 4 -34 19 -34 14 0 20 -9 23 -36 2 -19 0 -37 -4 -40 -4 -3 -8
-18 -8 -35 0 -31 -19 -41 -21 -11 -1 9 -5 4 -9 -13 l-8 -30 -1 32 c-1 24 -5
31 -16 27 -8 -4 -15 -1 -15 6 0 6 10 10 23 8 16 -2 22 2 22 17 1 11 5 26 9 34
6 9 3 18 -7 26 -10 7 -17 25 -17 41 0 23 -5 30 -20 30 -23 0 -26 -11 -6 -23
16 -10 30 -89 16 -98 -6 -3 -14 5 -20 19 -14 38 -19 32 -14 -16 4 -36 3 -39
-6 -19 -7 16 -7 45 0 95 6 39 13 89 16 111 8 62 13 73 24 55 8 -12 10 -10 10
8 0 12 -4 22 -10 22 -5 0 -10 8 -10 18 0 14 2 15 10 2 9 -13 10 -13 11 0z m74
-395 c3 -25 10 -43 16 -40 5 4 9 2 9 -3 0 -5 6 -9 13 -9 8 0 12 11 11 29 -1
15 2 25 7 22 10 -6 12 -57 2 -67 -9 -10 -10 -57 -1 -57 4 0 8 -5 8 -12 0 -9
-3 -9 -12 0 -21 21 -30 13 -26 -20 l5 -32 -20 25 c-22 27 -22 30 -1 -43 5 -17
3 -20 -11 -15 -14 6 -16 2 -12 -21 2 -15 2 -21 -1 -13 -3 12 -5 12 -13 0 -6
-10 -9 -4 -9 18 0 17 -5 35 -10 38 -6 4 -7 11 -4 17 5 7 12 4 21 -8 14 -18 14
-18 11 6 -4 31 -40 54 -49 31 -4 -10 -8 -11 -12 -4 -4 6 0 19 9 27 8 9 15 26
14 39 -3 35 0 43 10 27 8 -12 10 -9 10 13 0 15 5 27 11 27 7 0 9 12 5 35 -4
20 -3 35 2 35 6 0 13 -20 17 -45z m109 -97 c9 -35 7 -60 -4 -53 -6 4 -10 -6
-10 -24 0 -22 4 -29 14 -25 18 7 22 -1 31 -53 4 -29 3 -43 -4 -43 -6 0 -11 9
-11 20 0 11 -5 20 -10 20 -6 0 -8 -11 -4 -27 7 -29 23 -45 35 -37 10 6 19 -22
19 -57 0 -18 4 -28 10 -24 6 3 10 0 10 -8 0 -10 -7 -13 -20 -10 -16 4 -20 0
-20 -21 0 -39 -16 -32 -23 10 -9 53 -57 86 -57 39 0 -14 -4 -25 -10 -25 -5 0
-10 -6 -10 -13 0 -8 -11 -35 -25 -62 -13 -27 -21 -53 -18 -58 3 -6 1 -7 -5 -3
-8 5 -12 -1 -12 -15 0 -35 -17 -9 -23 36 -6 39 -6 39 8 15 14 -24 14 -24 15
-3 0 12 -4 24 -10 28 -13 8 -1 35 16 35 21 0 17 18 -6 25 -11 3 -21 15 -21 26
-1 10 -2 25 -3 32 -1 6 5 11 12 10 17 -4 15 23 -4 42 -18 17 -38 99 -23 89 5
-3 9 -17 9 -31 0 -16 7 -27 19 -30 11 -3 22 -15 24 -27 2 -11 5 -1 6 23 1 34
4 42 16 37 12 -4 14 0 10 22 -3 18 -1 15 7 -8 7 -19 16 -38 21 -41 13 -9 -10
-22 -24 -13 -8 4 -9 -4 -4 -27 4 -22 3 -29 -3 -20 -12 17 -26 -3 -18 -25 3 -8
-1 -17 -9 -20 -8 -4 -15 -13 -15 -21 0 -8 5 -11 10 -8 6 3 10 1 10 -4 0 -6 5
-11 10 -11 6 0 10 15 11 33 0 27 2 29 9 12 7 -15 9 -10 9 23 1 24 5 41 10 38
5 -3 11 4 15 17 5 18 8 20 16 7 7 -11 10 -6 10 20 0 26 -3 31 -10 20 -8 -13
-10 -13 -10 2 0 9 -4 18 -9 20 -5 2 -12 21 -16 43 -7 38 -6 39 8 20 16 -20 16
-20 11 1 -3 12 1 28 11 38 11 10 15 26 12 41 -5 31 9 33 17 3z m22 -465 c4
-21 10 -45 15 -54 5 -11 3 -16 -7 -16 -7 0 -14 5 -14 11 0 6 -4 6 -11 -1 -16
-16 -1 -35 21 -28 16 5 20 -1 25 -39 4 -26 12 -43 17 -40 5 4 9 -4 7 -17 -1
-13 1 -31 4 -39 3 -8 8 -27 11 -42 4 -16 13 -28 20 -28 15 0 33 -76 22 -87 -3
-4 -6 1 -6 10 0 9 -5 19 -11 23 -13 7 -9 -35 7 -71 7 -19 7 -19 -9 -3 -9 9
-17 24 -17 33 0 9 -4 14 -9 11 -5 -4 -5 -23 0 -48 14 -60 -6 -75 -21 -15 -10
36 -16 45 -31 42 -14 -3 -21 3 -25 23 -12 53 -16 62 -25 57 -5 -4 -9 -1 -9 4
0 6 4 11 8 11 5 0 5 26 1 58 -11 73 -2 124 19 120 10 -2 20 -21 26 -52 9 -42
13 -47 24 -34 10 13 9 18 -3 28 -8 7 -15 29 -15 49 0 26 -3 32 -10 21 -8 -12
-10 -12 -15 2 -7 18 -36 13 -32 -5 1 -7 -4 -11 -10 -9 -8 1 -13 -9 -14 -25 0
-27 -1 -27 -14 7 l-14 35 6 -45 c3 -25 10 -52 14 -62 9 -17 -5 -20 -28 -5 -8
5 -9 -1 -4 -20 4 -16 11 -27 16 -25 11 4 23 -25 24 -56 1 -13 -3 -20 -9 -17
-5 3 -10 15 -10 25 0 10 -8 25 -18 32 -10 7 -22 26 -26 42 -10 42 -19 24 -11
-23 5 -31 11 -41 26 -41 10 0 19 -4 19 -9 0 -5 3 -23 6 -40 4 -20 3 -31 -5
-31 -6 0 -11 14 -11 30 0 27 -5 32 -26 29 -13 -1 -24 26 -24 59 0 17 -3 31 -7
31 -27 -4 -33 4 -33 47 0 27 4 43 10 39 6 -4 10 6 10 22 l1 28 14 -25 c16 -29
20 -14 5 24 -5 15 -5 28 0 31 12 7 19 -6 22 -44 3 -35 17 -41 25 -11 3 11 9
21 14 21 5 1 14 2 21 3 6 0 13 7 16 15 3 10 -1 12 -16 9 -16 -5 -21 0 -26 24
-9 44 -7 60 4 53 6 -3 10 -17 10 -31 0 -14 7 -27 18 -31 9 -4 20 -11 24 -17 4
-6 8 2 8 17 0 16 4 26 10 22 13 -8 13 31 0 56 -8 15 -7 19 4 19 10 0 18 -14
22 -37z m-46 -434 c0 -27 -13 -39 -23 -21 -2 4 -2 1 0 -6 1 -8 3 -20 3 -27 0
-7 12 -20 26 -30 l26 -17 -7 30 c-3 18 -2 33 4 37 7 3 11 -3 11 -15 0 -13 4
-19 11 -14 7 4 9 23 6 48 -5 39 -5 40 8 16 8 -14 14 -35 15 -48 0 -13 4 -20
10 -17 6 3 10 -1 10 -9 0 -10 -8 -15 -21 -13 -12 1 -24 -3 -26 -10 -3 -8 6
-12 26 -10 22 1 31 7 31 19 0 35 18 26 24 -11 3 -22 9 -46 12 -55 5 -12 2 -15
-10 -10 -9 3 -16 15 -16 26 0 11 -4 16 -11 12 -10 -6 -7 -30 7 -68 4 -12 0
-16 -15 -16 -12 0 -21 -6 -21 -16 0 -8 5 -12 10 -9 6 3 10 1 10 -4 0 -10 -21
-16 -42 -12 -13 2 -9 -27 5 -32 6 -3 3 -6 -8 -6 -15 -1 -20 6 -21 24 -1 14 2
25 7 25 5 0 9 20 9 45 0 25 5 45 10 45 6 0 10 -9 10 -19 0 -11 5 -23 11 -27
14 -9 3 44 -13 64 -15 18 -42 11 -49 -13 -5 -16 -8 -12 -14 17 -4 22 -14 40
-25 43 -23 7 -32 62 -13 80 16 16 17 35 2 35 -5 0 -7 5 -4 10 11 18 35 -10 35
-41z m-800 -566 c1 -5 5 -27 9 -51 8 -39 6 -44 -13 -52 l-21 -9 22 0 c12 -1
26 7 32 16 12 22 20 15 23 -20 2 -18 8 -27 19 -27 25 0 41 -81 19 -95 -6 -4
-10 -3 -9 2 1 4 1 25 0 47 -1 33 -3 37 -16 26 -11 -9 -12 -17 -5 -30 6 -10 10
-36 10 -57 -1 -57 -19 -18 -22 45 -1 28 -5 49 -9 46 -4 -2 -9 2 -12 8 -3 7 -8
-15 -12 -50 -5 -39 -12 -61 -19 -59 -6 2 -11 15 -12 28 0 14 -3 30 -8 37 -4 6
-4 17 0 24 4 7 3 8 -4 4 -7 -4 -12 -3 -12 3 0 26 32 19 42 -9 3 -8 6 0 5 18 0
30 -3 33 -23 28 -20 -5 -23 -1 -29 34 -8 45 2 72 17 46 5 -9 7 -20 4 -25 -3
-5 0 -11 8 -14 12 -5 12 0 5 26 -12 42 -11 67 1 67 6 0 10 -3 10 -7z m260
-393 c0 -15 6 -27 13 -27 6 0 20 -4 29 -8 16 -6 17 -3 11 25 -4 23 -3 31 5 26
6 -4 14 -22 18 -41 3 -19 10 -35 14 -35 5 0 16 -3 26 -7 14 -5 16 -2 10 20 -4
16 -2 27 4 27 5 0 10 -9 10 -20 0 -11 4 -20 9 -20 4 0 5 18 1 40 -5 29 -4 40
4 37 6 -2 12 -25 14 -51 2 -32 0 -46 -7 -41 -6 3 -14 -1 -17 -10 -6 -13 -8
-14 -15 -3 -6 8 -7 1 -3 -18 4 -19 1 -34 -5 -38 -7 -4 -11 1 -11 13 0 28 -11
52 -21 45 -5 -3 -9 0 -9 5 0 6 -7 11 -15 11 -8 0 -15 -7 -15 -15 0 -8 -4 -15
-10 -15 -5 0 -10 15 -10 33 0 20 -3 27 -8 19 -5 -7 -15 -10 -23 -7 -12 4 -15
-3 -15 -30 0 -19 3 -35 7 -35 4 0 7 -6 6 -12 -1 -48 4 -67 18 -62 10 4 18 -3
25 -21 13 -34 13 -58 0 -50 -5 3 -10 21 -10 38 0 22 -3 28 -9 18 -14 -22 -41
29 -43 82 -1 26 -6 47 -9 47 -4 0 -10 10 -13 23 -2 12 -4 3 -2 -21 1 -37 0
-41 -11 -26 -17 23 -17 71 0 78 10 5 10 7 0 12 -20 9 -15 24 7 24 15 0 20 7
20 28 1 26 1 26 15 8 8 -11 15 -32 15 -46z m-58 -904 c2 -24 9 -30 31 -33 23
-3 27 0 27 22 0 16 6 25 15 25 8 0 15 5 15 11 0 5 4 8 9 4 6 -3 6 -18 0 -38
-13 -47 -12 -70 5 -64 15 6 26 -20 26 -60 0 -12 6 -24 13 -26 6 -3 0 -6 -15
-6 -20 -1 -28 -6 -28 -18 0 -16 -2 -16 -11 -3 -8 11 -9 6 -7 -23 3 -29 1 -35
-8 -25 -16 18 -28 88 -14 88 5 0 10 -5 10 -11 0 -5 5 -7 10 -4 6 3 10 13 10
21 0 8 -4 13 -9 9 -5 -3 -12 -1 -16 4 -9 15 -35 1 -35 -18 0 -14 -2 -14 -10
-1 -5 8 -10 29 -9 45 l0 30 13 -25 c14 -24 14 -24 13 13 -1 27 -5 37 -17 37
-19 0 -40 39 -40 72 0 31 18 10 22 -26z"/>
<path d="M11138 14148 c-32 -6 -58 -14 -58 -19 0 -4 -16 -11 -35 -15 -47 -9
-62 -28 -45 -59 13 -24 17 -25 79 -19 36 3 153 5 260 4 l193 -2 -7 23 c-13 39
-36 69 -66 85 -33 16 -228 18 -321 2z"/>
<path d="M11198 13853 c-56 -20 -98 -41 -98 -49 0 -20 50 -21 107 -2 59 20 83
23 83 8 0 -5 -4 -10 -9 -10 -5 0 -14 -13 -21 -30 -12 -28 -11 -46 6 -114 7
-28 7 -28 -18 -12 -38 25 -132 56 -141 46 -21 -20 7 -52 71 -83 37 -18 69 -34
72 -37 21 -21 97 -52 132 -53 37 -2 42 1 48 23 4 14 3 30 -1 36 -5 6 5 26 26
49 48 52 52 74 25 164 -12 42 -24 81 -26 87 -1 8 -31 12 -81 12 -65 0 -95 -6
-175 -35z"/>
<path d="M11218 12845 c-73 -30 -138 -66 -138 -77 0 -4 -6 -8 -12 -8 -36 -1
-75 -63 -46 -72 16 -6 69 3 64 11 -2 3 6 6 17 7 12 0 43 7 68 14 46 13 47 13
122 -28 42 -23 85 -42 96 -42 28 0 65 41 49 53 -8 5 -4 6 11 2 14 -5 21 -3 17
3 -3 5 3 17 14 27 24 22 28 67 4 58 -8 -3 -25 3 -37 14 -75 67 -136 77 -229
38z"/>
<path d="M11097 12643 c-18 -17 -5 -52 28 -77 72 -55 115 -67 232 -64 l108 3
3 27 c4 37 -25 48 -129 48 -81 0 -115 10 -168 51 -24 19 -62 25 -74 12z"/>
<path d="M10617 10133 c-15 -14 -6 -44 19 -66 25 -21 104 -71 134 -84 8 -3 22
-11 30 -18 25 -19 102 -44 160 -51 30 -3 66 -8 80 -11 14 -2 57 -7 96 -10 65
-5 73 -4 83 15 6 11 8 28 5 36 -7 19 -23 23 -119 31 -127 11 -178 20 -230 38
-61 22 -145 67 -145 78 0 5 -7 9 -15 9 -9 0 -25 9 -37 20 -22 20 -49 26 -61
13z"/>
</g>
</svg>
