<?xml version="1.0" encoding="UTF-8" standalone="no"?>
<!-- Created with Inkscape (http://www.inkscape.org/) -->

<svg
   xmlns:dc="http://purl.org/dc/elements/1.1/"
   xmlns:cc="http://creativecommons.org/ns#"
   xmlns:rdf="http://www.w3.org/1999/02/22-rdf-syntax-ns#"
   xmlns:svg="http://www.w3.org/2000/svg"
   xmlns="http://www.w3.org/2000/svg"
   xmlns:xlink="http://www.w3.org/1999/xlink"
   xmlns:sodipodi="http://sodipodi.sourceforge.net/DTD/sodipodi-0.dtd"
   xmlns:inkscape="http://www.inkscape.org/namespaces/inkscape"
   id="svg2"
   sodipodi:docname="TELEmedicine.svg"
   viewBox="0 0 980.00002 755.00001"
   sodipodi:version="0.32"
   version="1.0"
   inkscape:output_extension="org.inkscape.output.svg.inkscape"
   inkscape:version="0.91 r13725"
   width="980"
   height="755">
  <defs
     id="defs4">
    <linearGradient
       inkscape:collect="always"
       id="linearGradient7382">
      <stop
         style="stop-color:#000000;stop-opacity:1;"
         offset="0"
         id="stop7384" />
      <stop
         style="stop-color:#000000;stop-opacity:0;"
         offset="1"
         id="stop7386" />
    </linearGradient>
    <linearGradient
       id="linearGradient2178"
       y2="12.772"
       gradientUnits="userSpaceOnUse"
       x2="821.63"
       gradientTransform="translate(-172.44,114.01)"
       y1="607.70001"
       x1="721.72998"
       inkscape:collect="always">
      <stop
         id="stop2174"
         style="stop-color:#8e9699"
         offset="0" />
      <stop
         id="stop2190"
         style="stop-color:#e0e0e0"
         offset=".13817" />
      <stop
         id="stop2192"
         style="stop-color:#9ca0a0"
         offset=".85969" />
      <stop
         id="stop2176"
         style="stop-color:#596161"
         offset="1" />
    </linearGradient>
    <linearGradient
       id="linearGradient2186"
       y2="614.03003"
       gradientUnits="userSpaceOnUse"
       x2="714.56"
       gradientTransform="translate(-172.44,114.01)"
       y1="32.745998"
       x1="382.97"
       inkscape:collect="always">
      <stop
         id="stop2182"
         style="stop-color:#ececec"
         offset="0" />
      <stop
         id="stop8126"
         style="stop-color:#d9dada"
         offset=".35714" />
      <stop
         id="stop2188"
         style="stop-color:#c6c9c9"
         offset=".47194" />
      <stop
         id="stop2184"
         style="stop-color:#a0a6a6"
         offset="1" />
    </linearGradient>
    <linearGradient
       id="linearGradient8124"
       y2="493.69"
       gradientUnits="userSpaceOnUse"
       x2="614.65997"
       gradientTransform="translate(-172.44,114.01)"
       y1="626.96997"
       x1="549.15002"
       inkscape:collect="always">
      <stop
         id="stop8130"
         style="stop-color:#dcdcdc"
         offset="0" />
      <stop
         id="stop8138"
         style="stop-color:#a0a0a0"
         offset=".11798" />
      <stop
         id="stop8132"
         style="stop-color:#d9dada"
         offset=".23597" />
      <stop
         id="stop8134"
         style="stop-color:#838686"
         offset=".47194" />
      <stop
         id="stop8136"
         style="stop-color:#c8c5c8"
         offset="1" />
    </linearGradient>
    <linearGradient
       id="linearGradient10084"
       y2="743.13"
       gradientUnits="userSpaceOnUse"
       x2="534.75"
       gradientTransform="translate(-172.44,114.01)"
       y1="618.33002"
       x1="763.23999"
       inkscape:collect="always">
      <stop
         id="stop10080"
         style="stop-color:#797979"
         offset="0" />
      <stop
         id="stop10082"
         style="stop-color:#d8d8d8"
         offset="1" />
    </linearGradient>
    <linearGradient
       id="linearGradient11063"
       y2="595.98999"
       gradientUnits="userSpaceOnUse"
       x2="645.95001"
       gradientTransform="translate(-173.96,114.01)"
       y1="740.28998"
       x1="588.12"
       inkscape:collect="always">
      <stop
         id="stop11067"
         style="stop-color:#ececec;stop-opacity:0"
         offset="0" />
      <stop
         id="stop11069"
         style="stop-color:#d9dada"
         offset=".35714" />
      <stop
         id="stop11071"
         style="stop-color:#c6c9c9"
         offset=".47194" />
      <stop
         id="stop11073"
         style="stop-color:#a0a6a6"
         offset="1" />
    </linearGradient>
    <filter
       id="filter13039"
       inkscape:collect="always">
      <feGaussianBlur
         id="feGaussianBlur13041"
         stdDeviation="1.32134"
         inkscape:collect="always" />
    </filter>
    <linearGradient
       id="linearGradient13049"
       y2="300.41"
       gradientUnits="userSpaceOnUse"
       x2="621.15002"
       gradientTransform="translate(-172.44,114.01)"
       y1="57.660999"
       x1="649.95001"
       inkscape:collect="always">
      <stop
         id="stop13045"
         style="stop-color:#000000"
         offset="0" />
      <stop
         id="stop13047"
         style="stop-color:#93969e"
         offset="1" />
    </linearGradient>
    <filter
       id="filter3243"
       height="1.2661999"
       width="1.2002"
       y="-0.13309"
       x="-0.10008"
       inkscape:collect="always">
      <feGaussianBlur
         id="feGaussianBlur3245"
         stdDeviation="2.1547733"
         inkscape:collect="always" />
    </filter>
    <filter
       id="filter4246"
       inkscape:collect="always">
      <feGaussianBlur
         id="feGaussianBlur4248"
         stdDeviation="1.6090782"
         inkscape:collect="always" />
    </filter>
    <filter
       id="filter5246"
       inkscape:collect="always">
      <feGaussianBlur
         id="feGaussianBlur5248"
         stdDeviation="0.63611468"
         inkscape:collect="always" />
    </filter>
    <linearGradient
       inkscape:collect="always"
       xlink:href="#linearGradient7382"
       id="linearGradient7388"
       x1="309.1391"
       y1="582.66296"
       x2="220.02429"
       y2="586.53754"
       gradientUnits="userSpaceOnUse"
       gradientTransform="translate(26,-2)" />
  </defs>
  <sodipodi:namedview
     id="base"
     bordercolor="#666666"
     inkscape:pageshadow="2"
     guidetolerance="10"
     pagecolor="#ffffff"
     gridtolerance="10000"
     inkscape:window-height="1035"
     width="744.09px"
     inkscape:zoom="0.29578983"
     objecttolerance="10"
     height="1052.3622px"
     borderopacity="1.0"
     inkscape:current-layer="layer1"
     inkscape:cx="439.68527"
     inkscape:cy="373.22599"
     inkscape:window-y="1"
     inkscape:window-x="4"
     inkscape:window-width="1916"
     inkscape:pageopacity="0.0"
     inkscape:document-units="px"
     showgrid="false"
     inkscape:window-maximized="1"
     fit-margin-top="0"
     fit-margin-left="0"
     fit-margin-right="0"
     fit-margin-bottom="0" />
  <g
     id="layer1"
     inkscape:label="Layer 1"
     inkscape:groupmode="layer"
     transform="translate(319.01006,-152.28)">
    <g
       id="XMLID_1_"
       transform="matrix(-0.1330521,0.38003806,0.33605124,0.15046771,-193.66746,160.60288)">
      <g
         id="XMLID_2_">
        <path
           id="path7302"
           d="m 1139.385,1613.146 c -2.94,0.31 -5.87,0.56 -8.81,0.75 -14.43,0.93 -36.54,0.19 -47.81,-9.4 -1.41,-1.2 -2.65,-2.54 -3.69,-4.03 -2.17,-4.34 -1.82,-9.68 0.13,-15.35 0.01,-0.02 0.01,-0.04 0.02,-0.05 0.32,-0.93 0.69,-1.88 1.1,-2.83 0.02,-0.05 0.04,-0.1 0.06,-0.15 1.17,-2.72 2.67,-5.5 4.4,-8.26 0.04,-0.07 0.08,-0.14 0.13,-0.21 5.63,-8.92 13.6,-17.61 20.61,-23.68 0.05,-0.06 0.1,-0.1 0.15,-0.14 0.4,-0.35 0.8,-0.69 1.2,-1.02 13.97,27.96 14.59,38.47 29.06,39.11 41.77,1.56 158.97,-52.74 143.36,-86.48 -3.54,-7.35 -7.19,-14.63 -10.6,-22.01 6.56,-0.6 12.5,-0.86 17.84,-0.8 0.85,0 1.68,0.02 2.5,0.05 0.44,0.01 0.88,0.03 1.31,0.04 0.81,0.03 1.6,0.07 2.38,0.12 0.8,0.05 1.6,0.11 2.38,0.17 0.75,0.06 1.49,0.14 2.21,0.22 0.01,0 0.02,0 0.03,0 2.92,0.32 5.6,0.76 8.04,1.32 0,0 0.01,0.01 0.02,0.01 0.61,0.13 1.19,0.27 1.77,0.43 0.01,0.01 0.02,0.01 0.03,0.01 1.44,0.38 2.79,0.8 4.06,1.27 0.02,0.01 0.04,0.02 0.05,0.02 0.25,0.09 0.51,0.19 0.76,0.29 0.25,0.1 0.5,0.2 0.74,0.3 0.45,0.19 0.9,0.39 1.33,0.59 0.45,0.21 0.89,0.43 1.31,0.66 0.45,0.24 0.88,0.48 1.29,0.73 21.63,13.13 1.87,44.77 -37.7,73.48 -0.26,0.19 -0.52,0.38 -0.79,0.57 -35.5,25.55 -86.63,48.67 -138.12,54.19 -0.25,0.03 -0.5,0.059 -0.75,0.08 z"
           inkscape:connector-curvature="0"
           style="fill:#a6a6a6" />
        <path
           id="path7304"
           d="m 1279.045,1558.306 c 39.57,-28.71 59.33,-60.35 37.7,-73.48 21.76,13.049 2.77,44.46 -37.7,73.48 z"
           inkscape:connector-curvature="0"
           style="fill:#a6a6a6" />
        <path
           id="path7306"
           d="m 1084.335,1530.166 c -60.68,-26.21 35.21,-112.98 128.76,-119.15 13,-1.05 26.38,0.22 38.59,5.02 70.65,32.819 -87.42,144.829 -167.35,114.13 z m 88.25,-65.47 c 1.28,-13.52 -20.42,-17.06 -23.52,-3.44 -2.32,5.78 1.67,12.69 7.28,14.77 7.32,3.54 16.92,-3.31 16.24,-11.33 z"
           inkscape:connector-curvature="0"
           style="fill:#bebebe" />
        <path
           id="path7308"
           d="m 1156.345,1476.026 c -5.61,-2.08 -9.6,-8.99 -7.28,-14.77 3.1,-13.62 24.8,-10.08 23.52,3.44 0.68,8.02 -8.92,14.87 -16.24,11.33 z"
           inkscape:connector-curvature="0"
           style="fill:#595959" />
        <path
           id="path7310"
           d="m 1139.385,1613.146 c -26.15,3.04 -47.5,0.62 -56.62,-8.65 11.27,9.59 33.38,10.33 47.81,9.4 2.94,-0.19 5.87,-0.44 8.81,-0.75 z"
           inkscape:connector-curvature="0"
           style="fill:#a6a6a6" />
        <path
           id="path7312"
           d="m 1131.295,1571.816 c 9.46,17.75 123.25,-30.91 138.42,-61.89 -3.83,-7.78 -7.57,-15.6 -11.13,-23.49 3.11,-3.11 5.95,-6.49 8.77,-9.86 0.42,0.92 0.87,1.86 1.34,2.82 3.41,7.38 7.06,14.66 10.6,22.01 15.61,33.74 -101.59,88.04 -143.36,86.48 -14.47,-0.64 -15.09,-11.15 -29.06,-39.11 l -0.21,-0.42 c 4.59,0.04 9.19,0.13 13.82,0.27 3.62,7.71 7.27,15.42 10.81,23.19 z"
           inkscape:connector-curvature="0"
           style="fill:#585858" />
        <path
           id="path7314"
           d="m 1105.525,1549.936 c -7.01,6.07 -14.98,14.76 -20.61,23.68 5.48,-8.95 12.66,-16.881 20.61,-23.68 z"
           inkscape:connector-curvature="0"
           style="fill:#a6a6a6" />
        <path
           id="path7316"
           d="m 1079.655,1583.745 c 0.22,-0.51 0.44,-1.01 0.67,-1.51 -0.41,0.95 -0.78,1.9 -1.1,2.83 0.13,-0.44 0.27,-0.879 0.43,-1.32 z"
           inkscape:connector-curvature="0"
           style="fill:#a6a6a6" />
        <path
           id="path7318"
           d="m 1084.335,1530.166 c 79.93,30.7 238,-81.31 167.35,-114.13 -12.21,-4.8 -25.59,-6.07 -38.59,-5.02 -93.55,6.17 -189.44,92.94 -128.76,119.15 z m 46.96,41.65 c -3.54,-7.77 -7.19,-15.48 -10.81,-23.19 -4.63,-0.14 -9.23,-0.23 -13.82,-0.27 l 0.21,0.42 c -0.4,0.33 -0.8,0.67 -1.2,1.02 -0.05,0.04 -0.1,0.08 -0.15,0.14 -7.95,6.8 -15.13,14.73 -20.61,23.68 -0.05,0.07 -0.09,0.14 -0.13,0.21 -1.73,2.76 -3.23,5.54 -4.4,8.26 -0.02,0.05 -0.04,0.1 -0.06,0.15 -0.23,0.5 -0.45,1 -0.67,1.51 -0.16,0.44 -0.3,0.88 -0.43,1.32 -0.01,0.01 -0.01,0.03 -0.02,0.05 -1.95,5.67 -2.3,11.01 -0.13,15.35 1.04,1.49 2.28,2.83 3.69,4.03 9.12,9.27 30.47,11.69 56.62,8.65 0.25,-0.02 0.5,-0.05 0.75,-0.08 51.49,-5.52 102.62,-28.64 138.12,-54.19 0.27,-0.19 0.53,-0.38 0.79,-0.57 40.47,-29.02 59.46,-60.43 37.7,-73.48 -0.41,-0.25 -0.84,-0.49 -1.29,-0.73 -0.42,-0.23 -0.86,-0.45 -1.31,-0.66 -0.43,-0.2 -0.88,-0.4 -1.33,-0.59 -0.24,-0.1 -0.49,-0.2 -0.74,-0.3 -0.25,-0.1 -0.51,-0.2 -0.76,-0.29 -0.01,0 -0.03,-0.01 -0.05,-0.02 -1.27,-0.47 -2.62,-0.89 -4.06,-1.27 -0.01,0 -0.02,0 -0.03,-0.01 -0.58,-0.16 -1.16,-0.3 -1.77,-0.43 -0.01,0 -0.02,-0.01 -0.02,-0.01 -2.44,-0.56 -5.12,-1 -8.04,-1.32 -0.01,0 -0.02,0 -0.03,0 -0.72,-0.08 -1.46,-0.16 -2.21,-0.22 -0.78,-0.06 -1.58,-0.12 -2.38,-0.17 -0.78,-0.05 -1.57,-0.09 -2.38,-0.12 -0.43,-0.01 -0.87,-0.03 -1.31,-0.04 -0.82,-0.03 -1.65,-0.05 -2.5,-0.05 -5.34,-0.06 -11.28,0.2 -17.84,0.8 -0.47,-0.96 -0.92,-1.9 -1.34,-2.82 -2.82,3.37 -5.66,6.75 -8.77,9.86 3.56,7.89 7.3,15.71 11.13,23.49 -15.17,30.98 -128.96,79.64 -138.42,61.89 z m 3.78,-152.87 c 11.67,-1.91 22.43,-7.25 33.86,-10.15 -0.33,-1.21 -0.65,-2.42 -0.96,-3.6 80.4,-21 123.74,3.44 112.67,46.89 74.57,-0.99 106.38,54.52 21.24,122.48 -85.28,65.12 -225.68,93.14 -248.35,33.41 -8.74,-23.32 5.84,-48.23 22.81,-66.25 -72.9,-37.101 34.54,-120.3 58.73,-122.78 z"
           inkscape:connector-curvature="0"
           style="fill:#7f7f7f" />
        <path
           id="path7320"
           d="m 1027.555,143.626 c -1.98,4.25 -5.05,8.02 -8.89,11.6 -0.01,0.01 -0.02,0.02 -0.03,0.02 -5.66,4.26 -13.42,6.6 -23.24,5.59 -49.27,-4.63 -53.02,-5.28 -59,-9.51 -8.75,-5.19 -14.02,-15.48 -13.2,-25.62 -0.34,-11.33 7.96,-21.35 17.93,-25.82 10.22,-3.63 21.29,-1.25 31.76,-0.25 11.72,1.6 23.67,1.73 35.26,4.26 19.41,4.57 25.66,24.65 19.41,39.73 z"
           inkscape:connector-curvature="0" />
        <path
           id="path7322"
           d="m 1018.665,155.226 c 3.84,-3.58 6.91,-7.35 8.89,-11.6 -1.86,4.49 -4.83,8.54 -8.89,11.6 z"
           inkscape:connector-curvature="0"
           style="fill:#a5a5a5" />
        <path
           id="path7324"
           d="m 799.005,84.486 c 30.87,5.45 31.49,50.49 1.31,56.79 -8.34,1.53 -16.88,1.16 -25.31,1.66 -25.49,0.36 -39.03,4.25 -51.22,-7.61 -0.01,-0.01 -0.01,-0.01 -0.01,-0.01 -4.49,-5.56 -7.71,-10.95 -8.33,-19.38 -0.46,-12.53 6.93,-25.09 20.68,-29.1 7.77,-1.75 51.44,-3.21 62.88,-2.35 z"
           inkscape:connector-curvature="0" />
        <path
           id="path7326"
           d="m 766.825,586.866 c 2.44,1.2 4.92,2.19 7.28,3.03 -3.03,-1.04 -5.9,-2.15 -7.28,-3.03 z"
           inkscape:connector-curvature="0"
           style="fill:#8196ad" />
        <path
           id="path7328"
           d="m 774.675,589.156 c 0.76,0.29 1.52,0.59 2.27,0.9 0.25,0.1 0.5,0.2 0.74,0.3 0.6,0.25 1.18,0.49 1.74,0.72 0.74,0.31 1.49,0.63 2.23,0.95 0.56,0.24 1.13,0.47 1.7,0.7 0.11,0.05 0.21,0.1 0.32,0.14 -0.34,-0.09 -0.8,-0.23 -1.37,-0.39 -0.34,-0.1 -0.71,-0.21 -1.11,-0.33 -0.17,-0.05 -0.36,-0.11 -0.55,-0.16 -0.24,-0.07 -0.49,-0.15 -0.74,-0.22 -1.47,-0.46 -3.16,-0.99 -4.86,-1.55 -0.29,-0.1 -0.59,-0.2 -0.88,-0.3 -0.02,-0.01 -0.04,-0.02 -0.06,-0.02 -2.36,-0.84 -4.84,-1.83 -7.28,-3.03 -0.09,-0.06 -0.18,-0.12 -0.26,-0.17 l -0.21,-0.17 c 2.77,0.64 5.46,1.54 8.12,2.56 0.07,0.02 0.13,0.04 0.2,0.07 z"
           inkscape:connector-curvature="0"
           style="fill:#8196ad" />
        <path
           id="path7330"
           d="m 1110.935,233.766 c -56.36,103.83 -302,330.78 -326.46,359.37 -0.06,-0.02 -0.14,-0.04 -0.22,-0.07 -0.24,-0.08 -0.54,-0.2 -0.9,-0.34 -0.57,-0.23 -1.14,-0.46 -1.7,-0.7 -0.74,-0.32 -1.49,-0.64 -2.23,-0.95 -0.56,-0.23 -1.14,-0.47 -1.74,-0.72 -0.24,-0.1 -0.49,-0.2 -0.74,-0.3 -0.75,-0.31 -1.51,-0.61 -2.27,-0.9 -0.07,-0.03 -0.13,-0.05 -0.2,-0.07 -2.93,-1.14 -5.9,-2.16 -8.12,-2.56 l -0.01,0 c -1.02,-0.41 -2.15,-0.51 -3.07,0.1 -0.02,0 -0.03,0.01 -0.04,0.02 -0.63,-0.39 -1.25,-0.78 -1.88,-1.17 0,-0.01 0,-0.01 -0.01,-0.01 -0.1,-0.06 -0.2,-0.12 -0.3,-0.19 -0.71,-0.47 -1.56,-0.99 -2.6,-1.57 -0.03,-0.02 -0.06,-0.04 -0.09,-0.05 -0.54,-0.32 -1.09,-0.64 -1.64,-0.95 63.16,-61.19 301.03,-291.07 335.21,-370.8 13.97,-34.49 -37.54,-50.09 -74.01,-55.99 0.24,-0.22 0.48,-0.44 0.72,-0.67 0.01,0 0.02,-0.01 0.03,-0.02 4.06,-3.06 7.03,-7.11 8.89,-11.6 1.74,-3.73 2.64,-7.83 2.47,-12.51 60.15,9.97 112.74,41.59 80.91,102.65 z"
           inkscape:connector-curvature="0"
           style="fill:#a5a5a5" />
        <path
           id="path7332"
           d="m 765.015,587.226 c -0.61,0.03 -1.2,-0.11 -1.7,-0.52 0.61,0.34 1.13,0.52 1.7,0.52 z"
           inkscape:connector-curvature="0"
           style="fill:#6f8eb1" />
        <path
           id="path7334"
           d="m 763.275,586.626 c 0.92,-0.61 2.05,-0.51 3.07,-0.1 -1.4,-0.25 -2.49,-0.27 -3.07,0.1 z"
           inkscape:connector-curvature="0"
           style="fill:#6f8eb1" />
        <path
           id="path7336"
           d="m 765.015,587.226 c -0.57,0 -1.09,-0.18 -1.7,-0.52 -0.01,0 -0.02,-0.01 -0.03,-0.01 -0.02,-0.02 -0.03,-0.04 -0.05,-0.05 0.01,-0.01 0.02,-0.02 0.04,-0.02 0.58,-0.37 1.67,-0.35 3.07,-0.1 l 0.01,0 0.21,0.17 0.11,0.1 c -0.15,0.07 -0.3,0.13 -0.46,0.19 -0.29,0.1 -0.59,0.18 -0.89,0.22 -0.11,0.01 -0.21,0.02 -0.31,0.02 z"
           inkscape:connector-curvature="0"
           style="fill:#6f8eb1" />
        <path
           id="path7338"
           d="m 758.445,583.706 c 1.04,0.58 1.89,1.1 2.6,1.57 -0.86,-0.52 -1.73,-1.05 -2.6,-1.57 z"
           inkscape:connector-curvature="0"
           style="fill:#497dbb" />
        <path
           id="path7340"
           d="m 723.775,135.316 c -5.38,-5.46 -8.07,-12.41 -8.33,-19.38 0.62,8.43 3.84,13.82 8.33,19.38 z"
           inkscape:connector-curvature="0"
           style="fill:#a6a6a6" />
        <path
           id="path7342"
           d="m 715.445,115.936 c 0.26,6.97 2.95,13.92 8.33,19.38 0,0 0,0 0.01,0.01 0.11,0.14 0.22,0.28 0.34,0.42 -29.84,1.22 -59.55,6.02 -88.18,14.49 -91.97,29 -116.5,74.26 -202.02,414.93 -0.6,-0.24 -1.19,-0.47 -1.79,-0.71 -5.48,-2.19 -11.77,-4.66 -17.91,-7.14 -0.72,-0.29 -1.44,-0.58 -2.16,-0.87 -0.71,-0.29 -1.42,-0.58 -2.13,-0.87 -0.28,-0.11 -0.56,-0.23 -0.83,-0.34 80.02,-330.44 115.67,-386.92 192.51,-420.75 38.44,-16.61 88.3,-23.85 113.83,-24.66 -0.14,2.21 -0.13,4.24 0,6.11 z"
           inkscape:connector-curvature="0"
           style="fill:#a6a6a6" />
        <path
           id="path7344"
           d="m 784.475,593.135 c -32.39,127.41 -125.89,88.53 -195.86,128.91 -17.89,11.55 -31.33,33.16 -32.88,42.02 -12.84,57.51 -51.3,117.22 -76.57,156.81 -200.09,307.33 -351.7,462.09 -360.08,634.54 -1.2,28.94 2.98,69.63 27.64,84.52 59.4,39.28 187.94,-57.76 249.42,-101.1 412.13,-294.86 656.7,-553.28 772.79,-130.04 -11.43,2.9 -22.19,8.24 -33.86,10.15 -97.34,-330.85 -224.94,-216.03 -666.24,110.83 -136.54,98.26 -256.17,189.44 -337.28,141.94 -41.31,-22.85 -49.34,-73.78 -47.79,-121.14 10.88,-188.14 184.37,-365.85 371.23,-657.32 13.96,-22.05 41.45,-65.4 48.8,-89.82 10.09,-38.54 16.26,-46.71 19.1,-56.28 8.5,-45.99 -25.17,-39.93 -53.91,-47 -9.26,-2.59 -42.63,5.88 -66.64,-5.06 -32.54,-13.07 -34.52,-44.74 3.43,-141.24 1.09,0.46 2.2,0.92 3.33,1.38 0.27,0.11 0.55,0.23 0.83,0.34 0.71,0.29 1.42,0.58 2.13,0.87 0.72,0.29 1.44,0.58 2.16,0.87 6.14,2.48 12.43,4.95 17.91,7.14 2.26,0.91 4.38,1.77 6.3,2.56 -22.43,59.26 -24.48,77 -25.92,93.5 9.77,7.59 36.68,4.53 52.22,3.71 46.45,6.16 69.24,9.1 88.88,40.53 38.33,-35.94 102.72,-35.23 152.08,-54.02 25.71,-9.38 38.96,-43.76 45.76,-70.21 2.99,1.12 5.2,2.19 6.9,3.13 0.03,0.01 0.06,0.03 0.09,0.05 0.87,0.52 1.74,1.05 2.6,1.57 0.1,0.07 0.2,0.13 0.3,0.19 0.01,0 0.01,0 0.01,0.01 0.78,0.5 1.39,0.92 1.93,1.22 0.01,0 0.02,0.01 0.03,0.01 0.5,0.41 1.09,0.55 1.7,0.52 0.1,0 0.2,-0.01 0.31,-0.02 0.3,-0.04 0.6,-0.12 0.89,-0.22 0.16,-0.06 0.31,-0.12 0.46,-0.19 0.05,0.02 0.1,0.05 0.15,0.07 1.38,0.88 4.25,1.99 7.28,3.03 0.02,0 0.04,0.01 0.06,0.02 0.29,0.1 0.59,0.2 0.88,0.3 1.72,0.6 3.36,1.11 4.86,1.55 0.25,0.07 0.5,0.15 0.74,0.22 0.19,0.05 0.38,0.11 0.55,0.16 0.4,0.12 0.77,0.23 1.11,0.33 0.71,0.21 1.36,0.41 1.95,0.59 0.08,0.031 0.16,0.051 0.22,0.07 z"
           inkscape:connector-curvature="0"
           style="fill:#497dbb" />
      </g>
    </g>
    <path
       id="path11061"
       sodipodi:nodetypes="ccccc"
       style="fill:url(#linearGradient11063);fill-rule:evenodd"
       d="m 397.43,732.57 123.46,58.78 c 22.58,38.04 -14.88,75.88 -40.53,113.93 l -86.74,-50.22 c 26.28,-59.07 16.86,-83.27 3.81,-122.49 z"
       inkscape:connector-curvature="0" />
    <path
       id="path10090"
       sodipodi:nodetypes="cccsscccc"
       style="fill:#e6e6e6;fill-rule:evenodd"
       d="m 281.39,738.83 c -0.26,4.45 -1.07,9.68 8.52,16.46 l 120.22,66.44 c 10.19,3.28 17.6,7.56 37.14,0 15.05,-5.83 36.09,-15.37 49.83,-22.75 18.12,-9.72 23.76,1.73 26.98,7.55 l 1.68,0.85 C 524.93,781.23 501.12,791.18 492,788.81 L 281.39,738.83 Z"
       inkscape:connector-curvature="0" />
    <path
       id="path12044"
       sodipodi:nodetypes="ccccccc"
       style="fill:#000000;fill-rule:evenodd;stroke:#000000;stroke-width:0.99700999px;filter:url(#filter13039)"
       d="m 283.26,738.74 c -0.28,2.71 0.3,5.12 3.09,6.8 l 125.58,69.29 c 17.77,8.26 34.45,1.89 37.43,0.19 L 518.1,783.58 470.75,757.55 283.26,738.74 Z"
       inkscape:connector-curvature="0" />
    <path
       id="path4136"
       sodipodi:nodetypes="ccscssscc"
       style="fill:url(#linearGradient10084);fill-rule:evenodd"
       d="m 379.19,667 c 62.82,55.11 2.46,68.63 -97.02,63.95 0.21,3.45 -2.93,10.74 7.22,16.27 l 116.49,63.47 c 16.72,9.3 30.82,9.16 47.78,1.6 23.77,-10.6 38.49,-17.57 56,-26.32 14.7,-7.35 18.73,-20.17 13.46,-30.54 -11.39,-22.38 -45.33,-66.75 -45.33,-66.75 L 379.19,667 Z"
       inkscape:connector-curvature="0" />
    <path
       id="path4134"
       sodipodi:nodetypes="csscscscscc"
       style="fill:url(#linearGradient8124);fill-rule:evenodd"
       d="m 377.72,658.97 c 0,0 4.79,19.97 8.13,33.87 4.2,17.42 -13.9,26.55 -26.74,27.45 l -63.14,4.45 c -14.89,1.46 -18.19,8.92 -8.04,14.45 l 116.49,63.47 c 16.72,9.3 30.82,9.16 47.78,1.6 23.77,-10.6 55.99,-26.32 55.99,-26.32 14.12,-8.51 10.39,-20.02 3.97,-29.74 -15.03,-22.75 -45.33,-66.75 -45.33,-66.75 l -89.11,-22.48 z"
       inkscape:connector-curvature="0" />
    <path
       id="path2162"
       sodipodi:nodetypes="cccccccc"
       style="fill:url(#linearGradient2178);fill-rule:evenodd"
       d="m 595.57,160.31 22.48,9.4 c 11.39,4.82 17.39,11.48 15.99,22.99 l -66.32,492.94 c -2.11,17.33 -12.64,24.54 -24.18,24.56 l -33.27,3.36 44.52,-552.89 40.78,-0.36 z"
       inkscape:connector-curvature="0" />
    <path
       id="path2160"
       sodipodi:nodetypes="cssssccss"
       style="fill:url(#linearGradient2186);fill-rule:evenodd"
       d="m 254.49,189.89 c -20.05,114.49 -49.83,293.99 -69.25,404.42 -1.25,7.08 2.32,22.61 14.52,26.39 75.92,23.56 221.22,67.44 306.62,91.76 8.56,2.43 22.72,-1.31 25.81,-22.39 20.39,-138.39 73.71,-504.09 73.71,-504.09 1.58,-15.1 -6.94,-27.06 -19.34,-27.14 0,0 -238.45,9.67 -311.45,11.39 -10.03,0.24 -18.38,6.87 -20.62,19.66 z"
       inkscape:connector-curvature="0" />
    <path
       id="path2166"
       sodipodi:nodetypes="cssssssss"
       style="fill:#000000;fill-rule:evenodd;stroke:#000000;stroke-width:1.01419997px"
       d="m 260.64,193.39 c 1.59,-9.26 5.1,-17.69 19.47,-18.12 l 297.09,-8.79 c 9.96,-0.3 23.73,2.87 20.78,22.25 l -54.93,360.08 c -1.52,10.01 -5.83,26.24 -24.62,22.8 L 219.27,516.74 c -7.06,-1.29 -12.79,-8.2 -11.55,-15.43 l 52.92,-307.92 z"
       inkscape:connector-curvature="0" />
    <path
       id="path2170"
       sodipodi:nodetypes="ccccc"
       style="fill:#4d4d4d;fill-rule:evenodd"
       d="M 280.2,202.64 568.73,200.91 515.91,530 228.89,487.67 280.2,202.64 Z"
       inkscape:connector-curvature="0" />
    <path
       id="path6184"
       sodipodi:nodetypes="ccccc"
       style="fill:url(#linearGradient13049);fill-rule:evenodd"
       d="m 282.64,206.45 286.1,-1.71 -52.38,325.27 -284.59,-41.84 50.87,-281.72 z"
       inkscape:connector-curvature="0" />
    <ellipse
       id="path3247"
       style="fill:#000000;filter:url(#filter4246)"
       transform="matrix(0.85417,0.15506,-0.12543,0.82542,251.29,206.8)"
       cx="162.56647"
       cy="430.68665"
       rx="25.644287"
       ry="32.284325" />
    <ellipse
       id="path2209"
       style="fill:#000000"
       transform="matrix(0.98391927,0.17861377,-0.15023433,0.98865042,0,0)"
       cx="420.23917"
       cy="517.81146"
       rx="22.262579"
       ry="26.954044" />
    <path
       id="path2216"
       style="opacity:0.35556;fill:#000000;fill-opacity:1;filter:url(#filter3243)"
       sodipodi:nodetypes="csssc"
       transform="matrix(0.85417,0.15506,-0.12543,0.82542,249.96,205.73)"
       d="m 188.21,430.69 c 0,17.82 -17.97,-6.24 -32.12,-6.24 -14.16,0 -19.17,24.06 -19.17,6.24 0,-17.82 11.49,-32.29 25.65,-32.29 14.15,0 25.64,14.47 25.64,32.29 z"
       inkscape:connector-curvature="0" />
    <path
       id="path4250"
       style="opacity:0.23639999;fill:#000000;fill-opacity:1;filter:url(#filter5246)"
       sodipodi:nodetypes="csssc"
       transform="matrix(0.85417,0.15506,-0.12543,0.82542,250.85,206.29)"
       d="m 188.21,430.69 c 0,17.82 -11.49,32.28 -25.64,32.28 -14.16,0 -25.65,-14.46 -25.65,-32.28 0,-17.82 6.33,7.82 20.49,7.82 14.15,0 30.8,-25.64 30.8,-7.82 z"
       inkscape:connector-curvature="0" />
    <path
       style="fill:#497dbb;fill-opacity:1;fill-rule:evenodd;stroke:none;stroke-width:1px;stroke-linecap:butt;stroke-linejoin:miter;stroke-opacity:1"
       d="m 214.05918,425.79348 172.41782,-40.68286 15.49823,-4.8432 -6.78047,6.78048 9.68639,-0.96864 -9.68639,9.68639 13.56095,0.96864 -6.78048,3.87456 2.90592,5.81184 -221.81843,40.68285 z"
       id="path7376"
       inkscape:connector-curvature="0"
       sodipodi:nodetypes="ccccccccccc" />
    <path
       style="fill:#497dbb;fill-opacity:1;fill-rule:evenodd;stroke:none;stroke-width:1px;stroke-linecap:butt;stroke-linejoin:miter;stroke-opacity:1"
       d="m 167.56449,616.61544 27.1219,-19.37278 c 0,0 28.33092,-15.94682 43.58878,-21.31007 12.48898,-4.38997 25.54149,-7.76975 38.74557,-8.71776 20.67406,-1.48433 61.99293,4.8432 61.99293,4.8432 l -2.90592,21.31007 c 0,0 -23.08799,-5.66037 -34.87102,-5.81184 -18.583,-0.23888 -55.21245,7.74912 -55.21245,7.74912 l -31.9651,9.68639 -30.02782,14.52959 -30.02782,13.56095 z"
       id="path7378"
       inkscape:connector-curvature="0"
       sodipodi:nodetypes="ccaaccaccccc" />
    <path
       sodipodi:nodetypes="ccaaccaccccc"
       inkscape:connector-curvature="0"
       id="path7380"
       d="m 167.56449,616.61544 27.1219,-19.37278 c 0,0 28.33092,-15.94682 43.58878,-21.31007 12.48898,-4.38997 25.54149,-7.76975 38.74557,-8.71776 20.67406,-1.48433 61.99293,4.8432 61.99293,4.8432 l -2.90592,21.31007 c 0,0 -23.08799,-5.66037 -34.87102,-5.81184 -18.583,-0.23888 -55.21245,7.74912 -55.21245,7.74912 l -31.9651,9.68639 -30.02782,14.52959 -30.02782,13.56095 z"
       style="fill:url(#linearGradient7388);fill-opacity:1;fill-rule:evenodd;stroke:none;stroke-width:1px;stroke-linecap:butt;stroke-linejoin:miter;stroke-opacity:1" />
    <path
       sodipodi:type="spiral"
       style="fill:none;fill-rule:evenodd;stroke:#497dbb;stroke-width:5.70037222;stroke-linecap:round;stroke-linejoin:round;stroke-miterlimit:4;stroke-dasharray:none;stroke-opacity:1"
       id="path7390"
       sodipodi:cx="328.5119"
       sodipodi:cy="342.55322"
       sodipodi:expansion="2.2"
       sodipodi:revolution="18.9"
       sodipodi:radius="124.66882"
       sodipodi:argument="-11.598662"
       sodipodi:t0="0.41"
       d="m 342.88995,332.51755 c 6.06069,7.89797 4.20758,19.46773 -3.61626,25.45403 -8.46745,6.47875 -20.85822,4.48742 -27.26021,-3.9027 -6.91206,-9.0586 -4.77709,-22.30123 4.20097,-29.13415 9.67156,-7.36072 23.79708,-5.07663 31.07626,4.51116 7.82481,10.30646 5.3861,25.34607 -4.83333,33.08694 -10.96344,8.30442 -26.94852,5.70555 -35.16659,-5.16758 -8.79964,-11.6426 -6.03503,-28.60472 5.51396,-37.31557 12.34408,-9.31054 30.31496,-6.37461 39.53428,5.87255 9.83721,13.06798 6.72431,32.07953 -6.24342,41.82307 -13.81444,10.37972 -33.89872,7.0842 -44.18231,-6.62664 -10.93816,-14.58355 -7.45432,-35.77278 7.02227,-46.61235 15.37544,-11.51259 37.70201,-7.83472 49.11353,7.43038 12.1031,16.19021 8.22545,39.68666 -7.85102,51.6862 -17.02799,12.70976 -41.72698,8.62655 -54.33069,-8.28427 -13.33264,-17.88885 -9.03806,-43.82324 8.73019,-57.04732 18.77291,-13.9718 45.97568,-9.46004 59.83641,9.18883 14.62733,19.68028 9.89251,48.18455 -9.66025,62.69828 -20.61106,15.29928 -50.4501,10.33554 -65.63325,-10.14451 -15.98773,-21.56533 -10.78915,-52.77255 10.64168,-68.64161 22.5432,-16.69273 55.15214,-11.25339 71.72365,11.1518 17.41437,23.54477 11.72831,57.5891 -11.67492,74.87969 -24.57012,18.15269 -60.08366,12.21393 -78.11,-12.21111 -18.90778,-25.61936 -12.71031,-62.63605 12.76041,-81.41489 26.69256,-19.67967 65.24646,-13.21746 84.79461,13.32289 20.46844,27.78982 13.73545,67.91514 -13.89858,88.24946 -28.91123,21.27415 -70.64228,14.26431 -91.77971,-14.48754 -22.09685,-30.05688 -14.80405,-73.4281 15.08983,-95.38562 31.22685,-22.93662 76.2728,-15.35475 99.06747,15.70548 23.79349,32.42123 15.91641,79.17659 -16.33456,102.8255 -33.64009,24.66754 -82.13966,16.4891 -106.65999,-16.97709 -25.55881,-34.88352 -17.07282,-85.16223 17.63314,-110.57119 36.15161,-26.46736 88.24448,-17.66762 114.55935,18.30275 27.39325,37.44444 18.27354,91.38661 -18.98597,118.62471 -38.76207,28.33654 -94.5888,18.89061 -122.76752,-19.68283 -29.29727,-40.10459 -19.51886,-97.85125 20.39338,-126.98803 41.47209,-30.27549 101.17416,-20.15833 131.28648,21.11768 31.27127,42.86462 20.80905,104.55767 -21.85576,135.66309 -44.28227,32.28466 -108.002,21.47105 -140.11811,-22.60767 -33.31569,-45.72512 -22.14436,-111.50731 23.37345,-144.65175 47.19323,-34.36443 115.07379,-22.82902 149.26426,24.15313 35.43092,48.68668 23.52506,118.7016 -24.94676,153.95586 -50.20555,36.51522 -122.39094,24.2325 -158.72677,-25.7544 -37.61737,-51.74988 -24.95138,-126.14194 26.57605,-163.5772 53.31979,-38.73742 129.95482,-25.68173 168.50739,27.41179 23.21775,31.97483 29.56802,74.14447 17.11648,111.60985"
       transform="matrix(0.42396629,0,0,0.5097462,251.27447,222.83039)" />
  </g>
  <metadata
     id="metadata6685">
    <rdf:RDF>
      <cc:Work>
        <dc:format>image/svg+xml</dc:format>
        <dc:type
           rdf:resource="http://purl.org/dc/dcmitype/StillImage" />
        <cc:license
           rdf:resource="http://creativecommons.org/publicdomain/zero/1.0/" />
        <dc:publisher>
          <cc:Agent
             rdf:about="http://openclipart.org/">
            <dc:title>Openclipart</dc:title>
          </cc:Agent>
        </dc:publisher>
        <dc:title></dc:title>
        <dc:date>2007-08-08T17:43:49</dc:date>
        <dc:description />
        <dc:source>https://openclipart.org/detail/4714/a-new-computer-by-bigredsmile</dc:source>
        <dc:creator>
          <cc:Agent>
            <dc:title>BigRedSmile</dc:title>
          </cc:Agent>
        </dc:creator>
        <dc:subject>
          <rdf:Bag>
            <rdf:li>apple</rdf:li>
            <rdf:li>computer</rdf:li>
            <rdf:li>imac</rdf:li>
            <rdf:li>reflection</rdf:li>
          </rdf:Bag>
        </dc:subject>
      </cc:Work>
      <cc:License
         rdf:about="http://creativecommons.org/publicdomain/zero/1.0/">
        <cc:permits
           rdf:resource="http://creativecommons.org/ns#Reproduction" />
        <cc:permits
           rdf:resource="http://creativecommons.org/ns#Distribution" />
        <cc:permits
           rdf:resource="http://creativecommons.org/ns#DerivativeWorks" />
      </cc:License>
    </rdf:RDF>
  </metadata>
</svg>
